<?xml version="1.0" encoding="UTF-8"?><svg xmlns="http://www.w3.org/2000/svg" xmlns:xlink="http://www.w3.org/1999/xlink" fill-opacity="1" color-rendering="auto" color-interpolation="auto" text-rendering="auto" stroke="black" stroke-linecap="square" width="493" stroke-miterlimit="10" shape-rendering="auto" stroke-opacity="1" fill="black" stroke-dasharray="none" font-weight="normal" stroke-width="1" height="318" font-family="'Dialog'" font-style="normal" stroke-linejoin="miter" font-size="12px" stroke-dashoffset="0" image-rendering="auto">
  <!--Generated by ySVG 2.5-->
  <defs id="genericDefs"/>
  <g>
    <defs id="defs1">
      <linearGradient x1="-86" gradientUnits="userSpaceOnUse" x2="324" y1="463" y2="503" id="linearGradient1" spreadMethod="reflect">
        <stop stop-opacity="1" stop-color="rgb(0,153,204)" offset="0%"/>
        <stop stop-opacity="1" stop-color="rgb(0,153,204)" offset="100%"/>
      </linearGradient>
      <linearGradient x1="-86" gradientUnits="userSpaceOnUse" x2="324" y1="603" y2="643" id="linearGradient2" spreadMethod="reflect">
        <stop stop-opacity="1" stop-color="rgb(0,153,204)" offset="0%"/>
        <stop stop-opacity="1" stop-color="rgb(0,153,204)" offset="100%"/>
      </linearGradient>
      <clipPath clipPathUnits="userSpaceOnUse" id="clipPath1">
        <path d="M0 0 L493 0 L493 318 L0 318 L0 0 Z"/>
      </clipPath>
      <clipPath clipPathUnits="userSpaceOnUse" id="clipPath2">
        <path d="M-101 447 L392 447 L392 765 L-101 765 L-101 447 Z"/>
      </clipPath>
    </defs>
    <g fill="url(#linearGradient1)" text-rendering="geometricPrecision" shape-rendering="geometricPrecision" transform="matrix(1,0,0,1,101,-447)" stroke="url(#linearGradient1)">
      <path d="M-86 463 L324 463 L324 503 L-86 503 Z" stroke="none" clip-path="url(#clipPath2)"/>
    </g>
    <g stroke-linecap="butt" transform="matrix(1,0,0,1,101,-447)" fill="rgb(51,102,255)" text-rendering="geometricPrecision" shape-rendering="geometricPrecision" stroke="rgb(51,102,255)" stroke-miterlimit="1.45">
      <path fill="none" d="M-86 463 L324 463 L324 503 L-86 503 Z" clip-path="url(#clipPath2)"/>
    </g>
    <g font-size="30px" stroke-linecap="butt" transform="matrix(1,0,0,1,101,-447)" text-rendering="geometricPrecision" font-family="'Source Code Pro'" shape-rendering="geometricPrecision" stroke-miterlimit="1.45">
      <text x="-78.9919" xml:space="preserve" y="493.6646" clip-path="url(#clipPath2)" stroke="none">(nth 3 '(0 1 2 3 4 5))</text>
    </g>
    <g fill="url(#linearGradient2)" text-rendering="geometricPrecision" shape-rendering="geometricPrecision" transform="matrix(1,0,0,1,101,-447)" stroke="url(#linearGradient2)">
      <path d="M-86 603 L324 603 L324 643 L-86 643 Z" stroke="none" clip-path="url(#clipPath2)"/>
    </g>
    <g stroke-linecap="butt" transform="matrix(1,0,0,1,101,-447)" fill="rgb(51,102,255)" text-rendering="geometricPrecision" shape-rendering="geometricPrecision" stroke="rgb(51,102,255)" stroke-miterlimit="1.45">
      <path fill="none" d="M-86 603 L324 603 L324 643 L-86 643 Z" clip-path="url(#clipPath2)"/>
    </g>
    <g font-size="30px" stroke-linecap="butt" transform="matrix(1,0,0,1,101,-447)" text-rendering="geometricPrecision" font-family="'Source Code Pro'" shape-rendering="geometricPrecision" stroke-miterlimit="1.45">
      <text x="-78.9919" xml:space="preserve" y="633.6646" clip-path="url(#clipPath2)" stroke="none">(nth 3 '(0 1 2 3 4 5))</text>
    </g>
    <g fill="rgb(255,255,153)" text-rendering="geometricPrecision" shape-rendering="geometricPrecision" transform="matrix(1,0,0,1,101,-447)" stroke="rgb(255,255,153)">
      <path d="M177.5 721 L207.5 721 L207.5 736 L222.5 736 L222.5 749 L177.5 749 Z" stroke="none" clip-path="url(#clipPath2)"/>
    </g>
    <g fill="white" text-rendering="geometricPrecision" shape-rendering="geometricPrecision" transform="matrix(1,0,0,1,101,-447)" stroke="white">
      <path d="M207.5 721 L207.5 736 L222.5 736 Z" fill-rule="evenodd" clip-path="url(#clipPath2)" stroke="none"/>
    </g>
    <g stroke-linecap="butt" transform="matrix(1,0,0,1,101,-447)" fill="rgb(255,153,0)" text-rendering="geometricPrecision" shape-rendering="geometricPrecision" stroke-dasharray="6,2" stroke="rgb(255,153,0)" stroke-miterlimit="1.45">
      <path fill="none" d="M177.5 721 L207.5 721 L207.5 736 L222.5 736 L222.5 749 L177.5 749 Z" clip-path="url(#clipPath2)"/>
      <path fill="none" d="M207.5 721 L207.5 736 L222.5 736 Z" clip-path="url(#clipPath2)" fill-rule="evenodd"/>
    </g>
    <g font-size="20px" stroke-linecap="butt" transform="matrix(1,0,0,1,101,-447)" text-rendering="geometricPrecision" font-family="'Source Code Pro'" shape-rendering="geometricPrecision" stroke-miterlimit="1.45">
      <text x="194.0033" xml:space="preserve" y="742.1061" clip-path="url(#clipPath2)" stroke="none">3</text>
    </g>
    <g stroke-linecap="butt" transform="matrix(1,0,0,1,101,-447)" fill="lime" text-rendering="geometricPrecision" shape-rendering="geometricPrecision" stroke-dasharray="6,2" stroke="lime" stroke-miterlimit="1.45">
      <path fill="none" d="M117 612.5 L282 612.5 L282 633.5 L117 633.5 Z" clip-path="url(#clipPath2)"/>
    </g>
    <g stroke-linecap="butt" transform="matrix(1,0,0,1,101,-447)" fill="red" text-rendering="geometricPrecision" shape-rendering="geometricPrecision" stroke="red" stroke-miterlimit="1.45">
      <rect x="184.5" y="608" clip-path="url(#clipPath2)" fill="none" width="30" rx="4" ry="4" height="30"/>
    </g>
    <g fill="rgb(255,255,153)" text-rendering="geometricPrecision" shape-rendering="geometricPrecision" transform="matrix(1,0,0,1,101,-447)" stroke="rgb(255,255,153)">
      <path d="M252.5 693 L361.5 693 L361.5 708 L376.5 708 L376.5 721 L252.5 721 Z" stroke="none" clip-path="url(#clipPath2)"/>
      <path fill="white" d="M361.5 693 L361.5 708 L376.5 708 Z" clip-path="url(#clipPath2)" fill-rule="evenodd" stroke="none"/>
    </g>
    <g stroke-linecap="butt" transform="matrix(1,0,0,1,101,-447)" fill="lime" text-rendering="geometricPrecision" shape-rendering="geometricPrecision" stroke-dasharray="6,2" stroke="lime" stroke-miterlimit="1.45">
      <path fill="none" d="M252.5 693 L361.5 693 L361.5 708 L376.5 708 L376.5 721 L252.5 721 Z" clip-path="url(#clipPath2)"/>
      <path fill="none" d="M361.5 693 L361.5 708 L376.5 708 Z" clip-path="url(#clipPath2)" fill-rule="evenodd"/>
    </g>
    <g font-size="20px" stroke-linecap="butt" transform="matrix(1,0,0,1,101,-447)" text-rendering="geometricPrecision" font-family="'Source Code Pro'" shape-rendering="geometricPrecision" stroke-miterlimit="1.45">
      <text x="284.5165" xml:space="preserve" y="714.1061" clip-path="url(#clipPath2)" stroke="none">cdr部分</text>
    </g>
    <g stroke-linecap="butt" transform="matrix(1,0,0,1,101,-447)" fill="red" text-rendering="geometricPrecision" shape-rendering="geometricPrecision" stroke="red" stroke-miterlimit="1.45">
      <path fill="none" d="M119 502.9951 L119 594.9894" clip-path="url(#clipPath2)"/>
      <path d="M119 602.9894 L124 590.9894 L119 593.9894 L114 590.9894 Z" clip-path="url(#clipPath2)" stroke="none"/>
      <path fill="none" stroke-dasharray="6,2" d="M199.567 638.0117 L199.9019 713.0296" clip-path="url(#clipPath2)" stroke="rgb(255,153,0)"/>
      <path fill="rgb(255,153,0)" stroke-dasharray="6,2" d="M199.9376 721.0295 L204.884 709.0073 L199.8974 712.0296 L194.8841 709.052 Z" clip-path="url(#clipPath2)" stroke="none"/>
      <path fill="none" stroke-dasharray="6,2" d="M251.3655 633.5168 L297.2331 686.9028" clip-path="url(#clipPath2)" stroke="lime"/>
      <path fill="lime" stroke-dasharray="6,2" d="M302.4465 692.9708 L298.4189 680.6104 L296.5814 686.1443 L290.8339 687.1271 Z" clip-path="url(#clipPath2)" stroke="none"/>
    </g>
  </g>
</svg>
