<?xml version="1.0" encoding="UTF-8"?><svg xmlns="http://www.w3.org/2000/svg" xmlns:xlink="http://www.w3.org/1999/xlink" fill-opacity="1" color-rendering="auto" color-interpolation="auto" text-rendering="auto" stroke="black" stroke-linecap="square" width="348" stroke-miterlimit="10" shape-rendering="auto" stroke-opacity="1" fill="black" stroke-dasharray="none" font-weight="normal" stroke-width="1" height="350" font-family="'Dialog'" font-style="normal" stroke-linejoin="miter" font-size="12px" stroke-dashoffset="0" image-rendering="auto">
  <!--Generated by ySVG 2.5-->
  <defs id="genericDefs"/>
  <g>
    <defs id="defs1">
      <linearGradient x1="192" gradientUnits="userSpaceOnUse" x2="380" y1="117" y2="157" id="linearGradient1" spreadMethod="reflect">
        <stop stop-opacity="1" stop-color="rgb(0,153,204)" offset="0%"/>
        <stop stop-opacity="1" stop-color="rgb(0,153,204)" offset="100%"/>
      </linearGradient>
      <linearGradient x1="192" gradientUnits="userSpaceOnUse" x2="380" y1="187" y2="227" id="linearGradient2" spreadMethod="reflect">
        <stop stop-opacity="1" stop-color="rgb(0,153,204)" offset="0%"/>
        <stop stop-opacity="1" stop-color="rgb(0,153,204)" offset="100%"/>
      </linearGradient>
      <linearGradient x1="192" gradientUnits="userSpaceOnUse" x2="380" y1="257" y2="297" id="linearGradient3" spreadMethod="reflect">
        <stop stop-opacity="1" stop-color="rgb(0,153,204)" offset="0%"/>
        <stop stop-opacity="1" stop-color="rgb(0,153,204)" offset="100%"/>
      </linearGradient>
      <linearGradient x1="192" gradientUnits="userSpaceOnUse" x2="380" y1="327" y2="367" id="linearGradient4" spreadMethod="reflect">
        <stop stop-opacity="1" stop-color="rgb(0,153,204)" offset="0%"/>
        <stop stop-opacity="1" stop-color="rgb(0,153,204)" offset="100%"/>
      </linearGradient>
      <linearGradient x1="192" gradientUnits="userSpaceOnUse" x2="380" y1="397" y2="437" id="linearGradient5" spreadMethod="reflect">
        <stop stop-opacity="1" stop-color="rgb(0,153,204)" offset="0%"/>
        <stop stop-opacity="1" stop-color="rgb(0,153,204)" offset="100%"/>
      </linearGradient>
      <clipPath clipPathUnits="userSpaceOnUse" id="clipPath1">
        <path d="M0 0 L348 0 L348 350 L0 350 L0 0 Z"/>
      </clipPath>
      <clipPath clipPathUnits="userSpaceOnUse" id="clipPath2">
        <path d="M177 102 L525 102 L525 452 L177 452 L177 102 Z"/>
      </clipPath>
    </defs>
    <g fill="url(#linearGradient1)" text-rendering="geometricPrecision" shape-rendering="geometricPrecision" transform="matrix(1,0,0,1,-177,-102)" stroke="url(#linearGradient1)">
      <path d="M192 117 L380 117 L380 157 L192 157 Z" stroke="none" clip-path="url(#clipPath2)"/>
    </g>
    <g stroke-linecap="butt" transform="matrix(1,0,0,1,-177,-102)" fill="rgb(51,102,255)" text-rendering="geometricPrecision" shape-rendering="geometricPrecision" stroke="rgb(51,102,255)" stroke-miterlimit="1.45">
      <path fill="none" d="M192 117 L380 117 L380 157 L192 157 Z" clip-path="url(#clipPath2)"/>
    </g>
    <g font-size="15px" stroke-linecap="butt" transform="matrix(1,0,0,1,-177,-102)" text-rendering="geometricPrecision" font-family="'Source Code Pro'" shape-rendering="geometricPrecision" stroke-miterlimit="1.45">
      <text x="196.0037" xml:space="preserve" y="142.3323" clip-path="url(#clipPath2)" stroke="none">(setq foo1 '(a b c))</text>
    </g>
    <g fill="rgb(255,255,153)" text-rendering="geometricPrecision" shape-rendering="geometricPrecision" transform="matrix(1,0,0,1,-177,-102)" stroke="rgb(255,255,153)">
      <path d="M410 123 L495 123 L495 138 L510 138 L510 151 L410 151 Z" stroke="none" clip-path="url(#clipPath2)"/>
    </g>
    <g fill="white" text-rendering="geometricPrecision" shape-rendering="geometricPrecision" transform="matrix(1,0,0,1,-177,-102)" stroke="white">
      <path d="M495 123 L495 138 L510 138 Z" fill-rule="evenodd" clip-path="url(#clipPath2)" stroke="none"/>
    </g>
    <g stroke-linecap="butt" transform="matrix(1,0,0,1,-177,-102)" fill="rgb(255,153,0)" text-rendering="geometricPrecision" shape-rendering="geometricPrecision" stroke-dasharray="6,2" stroke="rgb(255,153,0)" stroke-miterlimit="1.45">
      <path fill="none" d="M410 123 L495 123 L495 138 L510 138 L510 151 L410 151 Z" clip-path="url(#clipPath2)"/>
      <path fill="none" d="M495 123 L495 138 L510 138 Z" clip-path="url(#clipPath2)" fill-rule="evenodd"/>
    </g>
    <g font-size="15px" stroke-linecap="butt" transform="matrix(1,0,0,1,-177,-102)" text-rendering="geometricPrecision" font-family="'Source Code Pro'" shape-rendering="geometricPrecision" stroke-miterlimit="1.45">
      <text x="428.5013" xml:space="preserve" y="142.3323" clip-path="url(#clipPath2)" stroke="none">(a b c)</text>
    </g>
    <g fill="url(#linearGradient2)" text-rendering="geometricPrecision" shape-rendering="geometricPrecision" transform="matrix(1,0,0,1,-177,-102)" stroke="url(#linearGradient2)">
      <path d="M192 187 L380 187 L380 227 L192 227 Z" stroke="none" clip-path="url(#clipPath2)"/>
    </g>
    <g stroke-linecap="butt" transform="matrix(1,0,0,1,-177,-102)" fill="rgb(51,102,255)" text-rendering="geometricPrecision" shape-rendering="geometricPrecision" stroke="rgb(51,102,255)" stroke-miterlimit="1.45">
      <path fill="none" d="M192 187 L380 187 L380 227 L192 227 Z" clip-path="url(#clipPath2)"/>
    </g>
    <g font-size="15px" stroke-linecap="butt" transform="matrix(1,0,0,1,-177,-102)" text-rendering="geometricPrecision" font-family="'Source Code Pro'" shape-rendering="geometricPrecision" stroke-miterlimit="1.45">
      <text x="214.0029" xml:space="preserve" y="212.3323" clip-path="url(#clipPath2)" stroke="none">(setcar foo1 'x)</text>
    </g>
    <g fill="rgb(255,255,153)" text-rendering="geometricPrecision" shape-rendering="geometricPrecision" transform="matrix(1,0,0,1,-177,-102)" stroke="rgb(255,255,153)">
      <path d="M410 193 L495 193 L495 208 L510 208 L510 221 L410 221 Z" stroke="none" clip-path="url(#clipPath2)"/>
      <path fill="white" d="M495 193 L495 208 L510 208 Z" clip-path="url(#clipPath2)" fill-rule="evenodd" stroke="none"/>
    </g>
    <g stroke-linecap="butt" transform="matrix(1,0,0,1,-177,-102)" fill="rgb(255,153,0)" text-rendering="geometricPrecision" shape-rendering="geometricPrecision" stroke-dasharray="6,2" stroke="rgb(255,153,0)" stroke-miterlimit="1.45">
      <path fill="none" d="M410 193 L495 193 L495 208 L510 208 L510 221 L410 221 Z" clip-path="url(#clipPath2)"/>
      <path fill="none" d="M495 193 L495 208 L510 208 Z" clip-path="url(#clipPath2)" fill-rule="evenodd"/>
    </g>
    <g font-size="15px" stroke-linecap="butt" transform="matrix(1,0,0,1,-177,-102)" text-rendering="geometricPrecision" font-family="'Source Code Pro'" shape-rendering="geometricPrecision" stroke-miterlimit="1.45">
      <text x="455.5002" xml:space="preserve" y="212.3323" clip-path="url(#clipPath2)" stroke="none">x</text>
    </g>
    <g fill="url(#linearGradient3)" text-rendering="geometricPrecision" shape-rendering="geometricPrecision" transform="matrix(1,0,0,1,-177,-102)" stroke="url(#linearGradient3)">
      <path d="M192 257 L380 257 L380 297 L192 297 Z" stroke="none" clip-path="url(#clipPath2)"/>
    </g>
    <g stroke-linecap="butt" transform="matrix(1,0,0,1,-177,-102)" fill="rgb(51,102,255)" text-rendering="geometricPrecision" shape-rendering="geometricPrecision" stroke="rgb(51,102,255)" stroke-miterlimit="1.45">
      <path fill="none" d="M192 257 L380 257 L380 297 L192 297 Z" clip-path="url(#clipPath2)"/>
    </g>
    <g font-size="15px" stroke-linecap="butt" transform="matrix(1,0,0,1,-177,-102)" text-rendering="geometricPrecision" font-family="'Source Code Pro'" shape-rendering="geometricPrecision" stroke-miterlimit="1.45">
      <text x="268.0007" xml:space="preserve" y="282.3323" clip-path="url(#clipPath2)" stroke="none">foo1</text>
    </g>
    <g fill="rgb(255,255,153)" text-rendering="geometricPrecision" shape-rendering="geometricPrecision" transform="matrix(1,0,0,1,-177,-102)" stroke="rgb(255,255,153)">
      <path d="M410 263 L495 263 L495 278 L510 278 L510 291 L410 291 Z" stroke="none" clip-path="url(#clipPath2)"/>
      <path fill="white" d="M495 263 L495 278 L510 278 Z" clip-path="url(#clipPath2)" fill-rule="evenodd" stroke="none"/>
    </g>
    <g stroke-linecap="butt" transform="matrix(1,0,0,1,-177,-102)" fill="rgb(255,153,0)" text-rendering="geometricPrecision" shape-rendering="geometricPrecision" stroke-dasharray="6,2" stroke="rgb(255,153,0)" stroke-miterlimit="1.45">
      <path fill="none" d="M410 263 L495 263 L495 278 L510 278 L510 291 L410 291 Z" clip-path="url(#clipPath2)"/>
      <path fill="none" d="M495 263 L495 278 L510 278 Z" clip-path="url(#clipPath2)" fill-rule="evenodd"/>
    </g>
    <g font-size="15px" stroke-linecap="butt" transform="matrix(1,0,0,1,-177,-102)" text-rendering="geometricPrecision" font-family="'Source Code Pro'" shape-rendering="geometricPrecision" stroke-miterlimit="1.45">
      <text x="428.5013" xml:space="preserve" y="282.3323" clip-path="url(#clipPath2)" stroke="none">(x b c)</text>
    </g>
    <g fill="url(#linearGradient4)" text-rendering="geometricPrecision" shape-rendering="geometricPrecision" transform="matrix(1,0,0,1,-177,-102)" stroke="url(#linearGradient4)">
      <path d="M192 327 L380 327 L380 367 L192 367 Z" stroke="none" clip-path="url(#clipPath2)"/>
    </g>
    <g stroke-linecap="butt" transform="matrix(1,0,0,1,-177,-102)" fill="rgb(51,102,255)" text-rendering="geometricPrecision" shape-rendering="geometricPrecision" stroke="rgb(51,102,255)" stroke-miterlimit="1.45">
      <path fill="none" d="M192 327 L380 327 L380 367 L192 367 Z" clip-path="url(#clipPath2)"/>
    </g>
    <g font-size="15px" stroke-linecap="butt" transform="matrix(1,0,0,1,-177,-102)" text-rendering="geometricPrecision" font-family="'Source Code Pro'" shape-rendering="geometricPrecision" stroke-miterlimit="1.45">
      <text x="196.0037" xml:space="preserve" y="352.3323" clip-path="url(#clipPath2)" stroke="none">(setcdr foo1 '(x y))</text>
    </g>
    <g fill="rgb(255,255,153)" text-rendering="geometricPrecision" shape-rendering="geometricPrecision" transform="matrix(1,0,0,1,-177,-102)" stroke="rgb(255,255,153)">
      <path d="M410 333 L495 333 L495 348 L510 348 L510 361 L410 361 Z" stroke="none" clip-path="url(#clipPath2)"/>
      <path fill="white" d="M495 333 L495 348 L510 348 Z" clip-path="url(#clipPath2)" fill-rule="evenodd" stroke="none"/>
    </g>
    <g stroke-linecap="butt" transform="matrix(1,0,0,1,-177,-102)" fill="rgb(255,153,0)" text-rendering="geometricPrecision" shape-rendering="geometricPrecision" stroke-dasharray="6,2" stroke="rgb(255,153,0)" stroke-miterlimit="1.45">
      <path fill="none" d="M410 333 L495 333 L495 348 L510 348 L510 361 L410 361 Z" clip-path="url(#clipPath2)"/>
      <path fill="none" d="M495 333 L495 348 L510 348 Z" clip-path="url(#clipPath2)" fill-rule="evenodd"/>
    </g>
    <g font-size="15px" stroke-linecap="butt" transform="matrix(1,0,0,1,-177,-102)" text-rendering="geometricPrecision" font-family="'Source Code Pro'" shape-rendering="geometricPrecision" stroke-miterlimit="1.45">
      <text x="437.5009" xml:space="preserve" y="352.3323" clip-path="url(#clipPath2)" stroke="none">(y z)</text>
    </g>
    <g fill="url(#linearGradient5)" text-rendering="geometricPrecision" shape-rendering="geometricPrecision" transform="matrix(1,0,0,1,-177,-102)" stroke="url(#linearGradient5)">
      <path d="M192 397 L380 397 L380 437 L192 437 Z" stroke="none" clip-path="url(#clipPath2)"/>
    </g>
    <g stroke-linecap="butt" transform="matrix(1,0,0,1,-177,-102)" fill="rgb(51,102,255)" text-rendering="geometricPrecision" shape-rendering="geometricPrecision" stroke="rgb(51,102,255)" stroke-miterlimit="1.45">
      <path fill="none" d="M192 397 L380 397 L380 437 L192 437 Z" clip-path="url(#clipPath2)"/>
    </g>
    <g font-size="15px" stroke-linecap="butt" transform="matrix(1,0,0,1,-177,-102)" text-rendering="geometricPrecision" font-family="'Source Code Pro'" shape-rendering="geometricPrecision" stroke-miterlimit="1.45">
      <text x="268.0007" xml:space="preserve" y="422.3323" clip-path="url(#clipPath2)" stroke="none">foo1</text>
    </g>
    <g fill="rgb(255,255,153)" text-rendering="geometricPrecision" shape-rendering="geometricPrecision" transform="matrix(1,0,0,1,-177,-102)" stroke="rgb(255,255,153)">
      <path d="M410 403 L495 403 L495 418 L510 418 L510 431 L410 431 Z" stroke="none" clip-path="url(#clipPath2)"/>
      <path fill="white" d="M495 403 L495 418 L510 418 Z" clip-path="url(#clipPath2)" fill-rule="evenodd" stroke="none"/>
    </g>
    <g stroke-linecap="butt" transform="matrix(1,0,0,1,-177,-102)" fill="rgb(255,153,0)" text-rendering="geometricPrecision" shape-rendering="geometricPrecision" stroke-dasharray="6,2" stroke="rgb(255,153,0)" stroke-miterlimit="1.45">
      <path fill="none" d="M410 403 L495 403 L495 418 L510 418 L510 431 L410 431 Z" clip-path="url(#clipPath2)"/>
      <path fill="none" d="M495 403 L495 418 L510 418 Z" clip-path="url(#clipPath2)" fill-rule="evenodd"/>
    </g>
    <g font-size="15px" stroke-linecap="butt" transform="matrix(1,0,0,1,-177,-102)" text-rendering="geometricPrecision" font-family="'Source Code Pro'" shape-rendering="geometricPrecision" stroke-miterlimit="1.45">
      <text x="428.5013" xml:space="preserve" y="422.3323" clip-path="url(#clipPath2)" stroke="none">(x y z)</text>
    </g>
    <g stroke-linecap="butt" transform="matrix(1,0,0,1,-177,-102)" fill="rgb(255,153,0)" text-rendering="geometricPrecision" shape-rendering="geometricPrecision" stroke-dasharray="6,2" stroke="rgb(255,153,0)" stroke-miterlimit="1.45">
      <path fill="none" d="M380.0093 137 L401.9667 137" clip-path="url(#clipPath2)"/>
      <path d="M409.9667 137 L397.9667 132 L400.9667 137 L397.9667 142 Z" clip-path="url(#clipPath2)" stroke="none"/>
      <path fill="none" stroke-dasharray="none" d="M286 156.9951 L286 179.0273" clip-path="url(#clipPath2)" stroke="red"/>
      <path fill="red" stroke-dasharray="none" d="M286 187.0273 L291 175.0273 L286 178.0273 L281 175.0273 Z" clip-path="url(#clipPath2)" stroke="none"/>
      <path fill="none" d="M380.0093 207 L401.9667 207" clip-path="url(#clipPath2)"/>
      <path d="M409.9667 207 L397.9667 202 L400.9667 207 L397.9667 212 Z" clip-path="url(#clipPath2)" stroke="none"/>
      <path fill="none" stroke-dasharray="none" d="M286 226.9951 L286 249.0273" clip-path="url(#clipPath2)" stroke="red"/>
      <path fill="red" stroke-dasharray="none" d="M286 257.0273 L291 245.0273 L286 248.0273 L281 245.0273 Z" clip-path="url(#clipPath2)" stroke="none"/>
      <path fill="none" d="M380.0093 277 L401.9667 277" clip-path="url(#clipPath2)"/>
      <path d="M409.9667 277 L397.9667 272 L400.9667 277 L397.9667 282 Z" clip-path="url(#clipPath2)" stroke="none"/>
      <path fill="none" stroke-dasharray="none" d="M286 296.9951 L286 319.0273" clip-path="url(#clipPath2)" stroke="red"/>
      <path fill="red" stroke-dasharray="none" d="M286 327.0273 L291 315.0273 L286 318.0273 L281 315.0273 Z" clip-path="url(#clipPath2)" stroke="none"/>
      <path fill="none" d="M380.0093 347 L401.9667 347" clip-path="url(#clipPath2)"/>
      <path d="M409.9667 347 L397.9667 342 L400.9667 347 L397.9667 352 Z" clip-path="url(#clipPath2)" stroke="none"/>
      <path fill="none" stroke-dasharray="none" d="M286 366.9951 L286 389.0273" clip-path="url(#clipPath2)" stroke="red"/>
      <path fill="red" stroke-dasharray="none" d="M286 397.0273 L291 385.0273 L286 388.0273 L281 385.0273 Z" clip-path="url(#clipPath2)" stroke="none"/>
      <path fill="none" d="M380.0093 417 L401.9667 417" clip-path="url(#clipPath2)"/>
      <path d="M409.9667 417 L397.9667 412 L400.9667 417 L397.9667 422 Z" clip-path="url(#clipPath2)" stroke="none"/>
    </g>
  </g>
</svg>
