<?xml version="1.0" encoding="UTF-8"?><svg xmlns="http://www.w3.org/2000/svg" xmlns:xlink="http://www.w3.org/1999/xlink" fill-opacity="1" color-rendering="auto" color-interpolation="auto" text-rendering="auto" stroke="black" stroke-linecap="square" width="271" stroke-miterlimit="10" shape-rendering="auto" stroke-opacity="1" fill="black" stroke-dasharray="none" font-weight="normal" stroke-width="1" height="226" font-family="'Dialog'" font-style="normal" stroke-linejoin="miter" font-size="12px" stroke-dashoffset="0" image-rendering="auto">
  <!--Generated by ySVG 2.5-->
  <defs id="genericDefs"/>
  <g>
    <defs id="defs1">
      <linearGradient x1="221" gradientUnits="userSpaceOnUse" x2="459" y1="209" y2="249" id="linearGradient1" spreadMethod="reflect">
        <stop stop-opacity="1" stop-color="rgb(0,153,204)" offset="0%"/>
        <stop stop-opacity="1" stop-color="rgb(0,153,204)" offset="100%"/>
      </linearGradient>
      <linearGradient x1="221" gradientUnits="userSpaceOnUse" x2="459" y1="297" y2="337" id="linearGradient2" spreadMethod="reflect">
        <stop stop-opacity="1" stop-color="rgb(0,153,204)" offset="0%"/>
        <stop stop-opacity="1" stop-color="rgb(0,153,204)" offset="100%"/>
      </linearGradient>
      <clipPath clipPathUnits="userSpaceOnUse" id="clipPath1">
        <path d="M0 0 L271 0 L271 226 L0 226 L0 0 Z"/>
      </clipPath>
      <clipPath clipPathUnits="userSpaceOnUse" id="clipPath2">
        <path d="M206 194 L477 194 L477 420 L206 420 L206 194 Z"/>
      </clipPath>
    </defs>
    <g fill="url(#linearGradient1)" text-rendering="geometricPrecision" shape-rendering="geometricPrecision" transform="matrix(1,0,0,1,-206,-194)" stroke="url(#linearGradient1)">
      <path d="M221 209 L459 209 L459 249 L221 249 Z" stroke="none" clip-path="url(#clipPath2)"/>
    </g>
    <g stroke-linecap="butt" transform="matrix(1,0,0,1,-206,-194)" fill="rgb(51,102,255)" text-rendering="geometricPrecision" shape-rendering="geometricPrecision" stroke="rgb(51,102,255)" stroke-miterlimit="1.45">
      <path fill="none" d="M221 209 L459 209 L459 249 L221 249 Z" clip-path="url(#clipPath2)"/>
    </g>
    <g font-size="15px" stroke-linecap="butt" transform="matrix(1,0,0,1,-206,-194)" text-rendering="geometricPrecision" font-family="'Source Code Pro'" shape-rendering="geometricPrecision" stroke-miterlimit="1.45">
      <text x="227.5046" xml:space="preserve" y="234.3323" clip-path="url(#clipPath2)" stroke="none">(nthcdr 3 '(0 1 2 3 4 5))</text>
    </g>
    <g fill="url(#linearGradient2)" text-rendering="geometricPrecision" shape-rendering="geometricPrecision" transform="matrix(1,0,0,1,-206,-194)" stroke="url(#linearGradient2)">
      <path d="M221 297 L459 297 L459 337 L221 337 Z" stroke="none" clip-path="url(#clipPath2)"/>
    </g>
    <g stroke-linecap="butt" transform="matrix(1,0,0,1,-206,-194)" fill="rgb(51,102,255)" text-rendering="geometricPrecision" shape-rendering="geometricPrecision" stroke="rgb(51,102,255)" stroke-miterlimit="1.45">
      <path fill="none" d="M221 297 L459 297 L459 337 L221 337 Z" clip-path="url(#clipPath2)"/>
    </g>
    <g font-size="15px" stroke-linecap="butt" transform="matrix(1,0,0,1,-206,-194)" text-rendering="geometricPrecision" font-family="'Source Code Pro'" shape-rendering="geometricPrecision" stroke-miterlimit="1.45">
      <text x="227.5046" xml:space="preserve" y="322.3323" clip-path="url(#clipPath2)" stroke="none">(nthcdr 3 '(0 1 2 3 4 5))</text>
    </g>
    <g stroke-linecap="butt" transform="matrix(1,0,0,1,-206,-194)" fill="red" text-rendering="geometricPrecision" shape-rendering="geometricPrecision" stroke="red" stroke-miterlimit="1.45">
      <rect x="382" y="302" clip-path="url(#clipPath2)" fill="none" width="60" rx="4" ry="4" height="30"/>
    </g>
    <g fill="rgb(255,255,153)" text-rendering="geometricPrecision" shape-rendering="geometricPrecision" transform="matrix(1,0,0,1,-206,-194)" stroke="rgb(255,255,153)">
      <path d="M362 377 L447 377 L447 392 L462 392 L462 405 L362 405 Z" stroke="none" clip-path="url(#clipPath2)"/>
      <path fill="white" d="M447 377 L447 392 L462 392 Z" clip-path="url(#clipPath2)" fill-rule="evenodd" stroke="none"/>
    </g>
    <g stroke-linecap="butt" transform="matrix(1,0,0,1,-206,-194)" fill="rgb(255,153,0)" text-rendering="geometricPrecision" shape-rendering="geometricPrecision" stroke-dasharray="6,2" stroke="rgb(255,153,0)" stroke-miterlimit="1.45">
      <path fill="none" d="M362 377 L447 377 L447 392 L462 392 L462 405 L362 405 Z" clip-path="url(#clipPath2)"/>
      <path fill="none" d="M447 377 L447 392 L462 392 Z" clip-path="url(#clipPath2)" fill-rule="evenodd"/>
    </g>
    <g font-size="15px" stroke-linecap="butt" transform="matrix(1,0,0,1,-206,-194)" text-rendering="geometricPrecision" font-family="'Source Code Pro'" shape-rendering="geometricPrecision" stroke-miterlimit="1.45">
      <text x="380.5013" xml:space="preserve" y="396.3323" clip-path="url(#clipPath2)" stroke="none">(3 4 5)</text>
    </g>
    <g stroke-linecap="butt" transform="matrix(1,0,0,1,-206,-194)" fill="red" text-rendering="geometricPrecision" shape-rendering="geometricPrecision" stroke="red" stroke-miterlimit="1.45">
      <path fill="none" d="M340 248.9805 L340 288.9728" clip-path="url(#clipPath2)"/>
      <path d="M340 296.9728 L345 284.9728 L340 287.9728 L335 284.9728 Z" clip-path="url(#clipPath2)" stroke="none"/>
      <path fill="none" stroke-dasharray="6,2" d="M412 331.9951 L412 369.0267" clip-path="url(#clipPath2)" stroke="rgb(255,153,0)"/>
      <path fill="rgb(255,153,0)" stroke-dasharray="6,2" d="M412 377.0267 L417 365.0267 L412 368.0267 L407 365.0267 Z" clip-path="url(#clipPath2)" stroke="none"/>
    </g>
  </g>
</svg>
