<?xml version="1.0" encoding="UTF-8"?><svg xmlns="http://www.w3.org/2000/svg" xmlns:xlink="http://www.w3.org/1999/xlink" fill-opacity="1" color-rendering="auto" color-interpolation="auto" text-rendering="auto" stroke="black" stroke-linecap="square" width="272" stroke-miterlimit="10" shape-rendering="auto" stroke-opacity="1" fill="black" stroke-dasharray="none" font-weight="normal" stroke-width="1" height="193" font-family="'Dialog'" font-style="normal" stroke-linejoin="miter" font-size="12px" stroke-dashoffset="0" image-rendering="auto">
  <!--Generated by ySVG 2.5-->
  <defs id="genericDefs"/>
  <g>
    <defs id="defs1">
      <linearGradient x1="213" gradientUnits="userSpaceOnUse" x2="455" y1="194" y2="234" id="linearGradient1" spreadMethod="reflect">
        <stop stop-opacity="1" stop-color="rgb(0,153,204)" offset="0%"/>
        <stop stop-opacity="1" stop-color="rgb(0,153,204)" offset="100%"/>
      </linearGradient>
      <linearGradient x1="213" gradientUnits="userSpaceOnUse" x2="455" y1="264" y2="304" id="linearGradient2" spreadMethod="reflect">
        <stop stop-opacity="1" stop-color="rgb(0,153,204)" offset="0%"/>
        <stop stop-opacity="1" stop-color="rgb(0,153,204)" offset="100%"/>
      </linearGradient>
      <clipPath clipPathUnits="userSpaceOnUse" id="clipPath1">
        <path d="M0 0 L272 0 L272 193 L0 193 L0 0 Z"/>
      </clipPath>
      <clipPath clipPathUnits="userSpaceOnUse" id="clipPath2">
        <path d="M198 179 L470 179 L470 372 L198 372 L198 179 Z"/>
      </clipPath>
    </defs>
    <g fill="url(#linearGradient1)" text-rendering="geometricPrecision" shape-rendering="geometricPrecision" transform="matrix(1,0,0,1,-198,-179)" stroke="url(#linearGradient1)">
      <path d="M213 194 L455 194 L455 234 L213 234 Z" stroke="none" clip-path="url(#clipPath2)"/>
    </g>
    <g stroke-linecap="butt" transform="matrix(1,0,0,1,-198,-179)" fill="rgb(51,102,255)" text-rendering="geometricPrecision" shape-rendering="geometricPrecision" stroke="rgb(51,102,255)" stroke-miterlimit="1.45">
      <path fill="none" d="M213 194 L455 194 L455 234 L213 234 Z" clip-path="url(#clipPath2)"/>
    </g>
    <g font-size="15px" stroke-linecap="butt" transform="matrix(1,0,0,1,-198,-179)" text-rendering="geometricPrecision" font-family="'Source Code Pro'" shape-rendering="geometricPrecision" stroke-miterlimit="1.45">
      <text x="217.0048" xml:space="preserve" y="219.3323" clip-path="url(#clipPath2)" stroke="none">(butlast '(0 1 2 3 4 5) 2)</text>
    </g>
    <g fill="url(#linearGradient2)" text-rendering="geometricPrecision" shape-rendering="geometricPrecision" transform="matrix(1,0,0,1,-198,-179)" stroke="url(#linearGradient2)">
      <path d="M213 264 L455 264 L455 304 L213 304 Z" stroke="none" clip-path="url(#clipPath2)"/>
    </g>
    <g stroke-linecap="butt" transform="matrix(1,0,0,1,-198,-179)" fill="rgb(51,102,255)" text-rendering="geometricPrecision" shape-rendering="geometricPrecision" stroke="rgb(51,102,255)" stroke-miterlimit="1.45">
      <path fill="none" d="M213 264 L455 264 L455 304 L213 304 Z" clip-path="url(#clipPath2)"/>
    </g>
    <g font-size="15px" stroke-linecap="butt" transform="matrix(1,0,0,1,-198,-179)" text-rendering="geometricPrecision" font-family="'Source Code Pro'" shape-rendering="geometricPrecision" stroke-miterlimit="1.45">
      <text x="217.0048" xml:space="preserve" y="289.3323" clip-path="url(#clipPath2)" stroke="none">(butlast '(0 1 2 3 4 5) 2)</text>
    </g>
    <g stroke-linecap="butt" transform="matrix(1,0,0,1,-198,-179)" fill="red" text-rendering="geometricPrecision" shape-rendering="geometricPrecision" stroke="red" stroke-miterlimit="1.45">
      <rect x="306" y="269" clip-path="url(#clipPath2)" fill="none" width="77" rx="4" ry="4" height="30"/>
    </g>
    <g fill="rgb(255,255,153)" text-rendering="geometricPrecision" shape-rendering="geometricPrecision" transform="matrix(1,0,0,1,-198,-179)" stroke="rgb(255,255,153)">
      <path d="M285 329 L389 329 L389 344 L404 344 L404 357 L285 357 Z" stroke="none" clip-path="url(#clipPath2)"/>
      <path fill="white" d="M389 329 L389 344 L404 344 Z" clip-path="url(#clipPath2)" fill-rule="evenodd" stroke="none"/>
    </g>
    <g stroke-linecap="butt" transform="matrix(1,0,0,1,-198,-179)" fill="rgb(255,153,0)" text-rendering="geometricPrecision" shape-rendering="geometricPrecision" stroke-dasharray="6,2" stroke="rgb(255,153,0)" stroke-miterlimit="1.45">
      <path fill="none" d="M285 329 L389 329 L389 344 L404 344 L404 357 L285 357 Z" clip-path="url(#clipPath2)"/>
      <path fill="none" d="M389 329 L389 344 L404 344 Z" clip-path="url(#clipPath2)" fill-rule="evenodd"/>
    </g>
    <g font-size="15px" stroke-linecap="butt" transform="matrix(1,0,0,1,-198,-179)" text-rendering="geometricPrecision" font-family="'Source Code Pro'" shape-rendering="geometricPrecision" stroke-miterlimit="1.45">
      <text x="304.0016" xml:space="preserve" y="348.3323" clip-path="url(#clipPath2)" stroke="none">(0 1 2 3)</text>
    </g>
    <g stroke-linecap="butt" transform="matrix(1,0,0,1,-198,-179)" fill="red" text-rendering="geometricPrecision" shape-rendering="geometricPrecision" stroke="red" stroke-miterlimit="1.45">
      <path fill="none" d="M334 233.9951 L334 256.0273" clip-path="url(#clipPath2)"/>
      <path d="M334 264.0273 L339 252.0273 L334 255.0273 L329 252.0273 Z" clip-path="url(#clipPath2)" stroke="none"/>
      <path fill="none" stroke-dasharray="6,2" d="M344.5 299.0093 L344.5 321.0381" clip-path="url(#clipPath2)" stroke="rgb(255,153,0)"/>
      <path fill="rgb(255,153,0)" stroke-dasharray="6,2" d="M344.5 329.0381 L349.5 317.0381 L344.5 320.0381 L339.5 317.0381 Z" clip-path="url(#clipPath2)" stroke="none"/>
    </g>
  </g>
</svg>
