<?xml version="1.0" encoding="UTF-8"?><svg xmlns="http://www.w3.org/2000/svg" xmlns:xlink="http://www.w3.org/1999/xlink" fill-opacity="1" color-rendering="auto" color-interpolation="auto" text-rendering="auto" stroke="black" stroke-linecap="square" width="249" stroke-miterlimit="10" shape-rendering="auto" stroke-opacity="1" fill="black" stroke-dasharray="none" font-weight="normal" stroke-width="1" height="193" font-family="'Dialog'" font-style="normal" stroke-linejoin="miter" font-size="12px" stroke-dashoffset="0" image-rendering="auto">
  <!--Generated by ySVG 2.5-->
  <defs id="genericDefs"/>
  <g>
    <defs id="defs1">
      <linearGradient x1="237" gradientUnits="userSpaceOnUse" x2="456" y1="221" y2="261" id="linearGradient1" spreadMethod="reflect">
        <stop stop-opacity="1" stop-color="rgb(0,153,204)" offset="0%"/>
        <stop stop-opacity="1" stop-color="rgb(0,153,204)" offset="100%"/>
      </linearGradient>
      <linearGradient x1="237" gradientUnits="userSpaceOnUse" x2="456" y1="291" y2="331" id="linearGradient2" spreadMethod="reflect">
        <stop stop-opacity="1" stop-color="rgb(0,153,204)" offset="0%"/>
        <stop stop-opacity="1" stop-color="rgb(0,153,204)" offset="100%"/>
      </linearGradient>
      <clipPath clipPathUnits="userSpaceOnUse" id="clipPath1">
        <path d="M0 0 L249 0 L249 193 L0 193 L0 0 Z"/>
      </clipPath>
      <clipPath clipPathUnits="userSpaceOnUse" id="clipPath2">
        <path d="M222 206 L471 206 L471 399 L222 399 L222 206 Z"/>
      </clipPath>
    </defs>
    <g fill="url(#linearGradient1)" text-rendering="geometricPrecision" shape-rendering="geometricPrecision" transform="matrix(1,0,0,1,-222,-206)" stroke="url(#linearGradient1)">
      <path d="M237 221 L456 221 L456 261 L237 261 Z" stroke="none" clip-path="url(#clipPath2)"/>
    </g>
    <g stroke-linecap="butt" transform="matrix(1,0,0,1,-222,-206)" fill="rgb(51,102,255)" text-rendering="geometricPrecision" shape-rendering="geometricPrecision" stroke="rgb(51,102,255)" stroke-miterlimit="1.45">
      <path fill="none" d="M237 221 L456 221 L456 261 L237 261 Z" clip-path="url(#clipPath2)"/>
    </g>
    <g font-size="15px" stroke-linecap="butt" transform="matrix(1,0,0,1,-222,-206)" text-rendering="geometricPrecision" font-family="'Source Code Pro'" shape-rendering="geometricPrecision" stroke-miterlimit="1.45">
      <text x="243.0042" xml:space="preserve" y="246.3323" clip-path="url(#clipPath2)" stroke="none">(last '(0 1 2 3 4 5) 2)</text>
    </g>
    <g fill="url(#linearGradient2)" text-rendering="geometricPrecision" shape-rendering="geometricPrecision" transform="matrix(1,0,0,1,-222,-206)" stroke="url(#linearGradient2)">
      <path d="M237 291 L456 291 L456 331 L237 331 Z" stroke="none" clip-path="url(#clipPath2)"/>
    </g>
    <g stroke-linecap="butt" transform="matrix(1,0,0,1,-222,-206)" fill="rgb(51,102,255)" text-rendering="geometricPrecision" shape-rendering="geometricPrecision" stroke="rgb(51,102,255)" stroke-miterlimit="1.45">
      <path fill="none" d="M237 291 L456 291 L456 331 L237 331 Z" clip-path="url(#clipPath2)"/>
    </g>
    <g font-size="15px" stroke-linecap="butt" transform="matrix(1,0,0,1,-222,-206)" text-rendering="geometricPrecision" font-family="'Source Code Pro'" shape-rendering="geometricPrecision" stroke-miterlimit="1.45">
      <text x="243.0042" xml:space="preserve" y="316.3323" clip-path="url(#clipPath2)" stroke="none">(last '(0 1 2 3 4 5) 2)</text>
    </g>
    <g stroke-linecap="butt" transform="matrix(1,0,0,1,-222,-206)" fill="red" text-rendering="geometricPrecision" shape-rendering="geometricPrecision" stroke="red" stroke-miterlimit="1.45">
      <rect x="384" y="296" clip-path="url(#clipPath2)" fill="none" width="39" rx="4" ry="4" height="30"/>
    </g>
    <g fill="rgb(255,255,153)" text-rendering="geometricPrecision" shape-rendering="geometricPrecision" transform="matrix(1,0,0,1,-222,-206)" stroke="rgb(255,255,153)">
      <path d="M365 356 L427 356 L427 371 L442 371 L442 384 L365 384 Z" stroke="none" clip-path="url(#clipPath2)"/>
      <path fill="white" d="M427 356 L427 371 L442 371 Z" clip-path="url(#clipPath2)" fill-rule="evenodd" stroke="none"/>
    </g>
    <g stroke-linecap="butt" transform="matrix(1,0,0,1,-222,-206)" fill="rgb(255,153,0)" text-rendering="geometricPrecision" shape-rendering="geometricPrecision" stroke-dasharray="6,2" stroke="rgb(255,153,0)" stroke-miterlimit="1.45">
      <path fill="none" d="M365 356 L427 356 L427 371 L442 371 L442 384 L365 384 Z" clip-path="url(#clipPath2)"/>
      <path fill="none" d="M427 356 L427 371 L442 371 Z" clip-path="url(#clipPath2)" fill-rule="evenodd"/>
    </g>
    <g font-size="15px" stroke-linecap="butt" transform="matrix(1,0,0,1,-222,-206)" text-rendering="geometricPrecision" font-family="'Source Code Pro'" shape-rendering="geometricPrecision" stroke-miterlimit="1.45">
      <text x="381.0009" xml:space="preserve" y="375.3323" clip-path="url(#clipPath2)" stroke="none">(4 5)</text>
    </g>
    <g stroke-linecap="butt" transform="matrix(1,0,0,1,-222,-206)" fill="red" text-rendering="geometricPrecision" shape-rendering="geometricPrecision" stroke="red" stroke-miterlimit="1.45">
      <path fill="none" d="M346.5 260.9951 L346.5 283.0273" clip-path="url(#clipPath2)"/>
      <path d="M346.5 291.0273 L351.5 279.0273 L346.5 282.0273 L341.5 279.0273 Z" clip-path="url(#clipPath2)" stroke="none"/>
      <path fill="none" stroke-dasharray="6,2" d="M403.5 326.0093 L403.5 348.0381" clip-path="url(#clipPath2)" stroke="rgb(255,153,0)"/>
      <path fill="rgb(255,153,0)" stroke-dasharray="6,2" d="M403.5 356.0381 L408.5 344.0381 L403.5 347.0381 L398.5 344.0381 Z" clip-path="url(#clipPath2)" stroke="none"/>
    </g>
  </g>
</svg>
