<?xml version="1.0" encoding="UTF-8"?><svg xmlns="http://www.w3.org/2000/svg" xmlns:xlink="http://www.w3.org/1999/xlink" fill-opacity="1" color-rendering="auto" color-interpolation="auto" text-rendering="auto" stroke="black" stroke-linecap="square" width="655" stroke-miterlimit="10" shape-rendering="auto" stroke-opacity="1" fill="black" stroke-dasharray="none" font-weight="normal" stroke-width="1" height="512" font-family="'Dialog'" font-style="normal" stroke-linejoin="miter" font-size="12px" stroke-dashoffset="0" image-rendering="auto">
  <!--Generated by ySVG 2.5-->
  <defs id="genericDefs"/>
  <g>
    <defs id="defs1">
      <linearGradient x1="41" gradientUnits="userSpaceOnUse" x2="42" y1="327" y2="367" id="linearGradient1" spreadMethod="reflect">
        <stop stop-opacity="1" stop-color="rgb(0,153,204)" offset="0%"/>
        <stop stop-opacity="1" stop-color="rgb(0,153,204)" offset="100%"/>
      </linearGradient>
      <linearGradient x1="95" gradientUnits="userSpaceOnUse" x2="96" y1="327" y2="367" id="linearGradient2" spreadMethod="reflect">
        <stop stop-opacity="1" stop-color="rgb(0,153,204)" offset="0%"/>
        <stop stop-opacity="1" stop-color="rgb(0,153,204)" offset="100%"/>
      </linearGradient>
      <linearGradient x1="42" gradientUnits="userSpaceOnUse" x2="52" y1="367" y2="368" id="linearGradient3" spreadMethod="reflect">
        <stop stop-opacity="1" stop-color="rgb(0,153,204)" offset="0%"/>
        <stop stop-opacity="1" stop-color="rgb(0,153,204)" offset="100%"/>
      </linearGradient>
      <linearGradient x1="77" gradientUnits="userSpaceOnUse" x2="95" y1="368" y2="369" id="linearGradient4" spreadMethod="reflect">
        <stop stop-opacity="1" stop-color="rgb(0,153,204)" offset="0%"/>
        <stop stop-opacity="1" stop-color="rgb(0,153,204)" offset="100%"/>
      </linearGradient>
      <linearGradient x1="52" gradientUnits="userSpaceOnUse" x2="53" y1="362" y2="375" id="linearGradient5" spreadMethod="reflect">
        <stop stop-opacity="1" stop-color="rgb(0,153,204)" offset="0%"/>
        <stop stop-opacity="1" stop-color="rgb(0,153,204)" offset="100%"/>
      </linearGradient>
      <linearGradient x1="76" gradientUnits="userSpaceOnUse" x2="77" y1="362" y2="375" id="linearGradient6" spreadMethod="reflect">
        <stop stop-opacity="1" stop-color="rgb(0,153,204)" offset="0%"/>
        <stop stop-opacity="1" stop-color="rgb(0,153,204)" offset="100%"/>
      </linearGradient>
      <linearGradient x1="137" gradientUnits="userSpaceOnUse" x2="251" y1="56" y2="83" id="linearGradient7" spreadMethod="reflect">
        <stop stop-opacity="1" stop-color="rgb(0,153,204)" offset="0%"/>
        <stop stop-opacity="1" stop-color="rgb(0,153,204)" offset="100%"/>
      </linearGradient>
      <linearGradient x1="281" gradientUnits="userSpaceOnUse" x2="395" y1="56" y2="83" id="linearGradient8" spreadMethod="reflect">
        <stop stop-opacity="1" stop-color="rgb(0,153,204)" offset="0%"/>
        <stop stop-opacity="1" stop-color="rgb(0,153,204)" offset="100%"/>
      </linearGradient>
      <linearGradient x1="425" gradientUnits="userSpaceOnUse" x2="539" y1="56" y2="83" id="linearGradient9" spreadMethod="reflect">
        <stop stop-opacity="1" stop-color="rgb(0,153,204)" offset="0%"/>
        <stop stop-opacity="1" stop-color="rgb(0,153,204)" offset="100%"/>
      </linearGradient>
      <linearGradient x1="137" gradientUnits="userSpaceOnUse" x2="251" y1="368" y2="395" id="linearGradient10" spreadMethod="reflect">
        <stop stop-opacity="1" stop-color="rgb(0,153,204)" offset="0%"/>
        <stop stop-opacity="1" stop-color="rgb(0,153,204)" offset="100%"/>
      </linearGradient>
      <linearGradient x1="281" gradientUnits="userSpaceOnUse" x2="395" y1="368" y2="395" id="linearGradient11" spreadMethod="reflect">
        <stop stop-opacity="1" stop-color="rgb(0,153,204)" offset="0%"/>
        <stop stop-opacity="1" stop-color="rgb(0,153,204)" offset="100%"/>
      </linearGradient>
      <linearGradient x1="425" gradientUnits="userSpaceOnUse" x2="539" y1="368" y2="395" id="linearGradient12" spreadMethod="reflect">
        <stop stop-opacity="1" stop-color="rgb(0,153,204)" offset="0%"/>
        <stop stop-opacity="1" stop-color="rgb(0,153,204)" offset="100%"/>
      </linearGradient>
      <linearGradient x1="271.5" gradientUnits="userSpaceOnUse" x2="404.5" y1="-31.5" y2="8.5" id="linearGradient13" spreadMethod="reflect">
        <stop stop-opacity="1" stop-color="rgb(0,153,204)" offset="0%"/>
        <stop stop-opacity="1" stop-color="rgb(0,153,204)" offset="100%"/>
      </linearGradient>
      <clipPath clipPathUnits="userSpaceOnUse" id="clipPath1">
        <path d="M0 0 L655 0 L655 512 L0 512 L0 0 Z"/>
      </clipPath>
      <clipPath clipPathUnits="userSpaceOnUse" id="clipPath2">
        <path d="M12 -47 L667 -47 L667 465 L12 465 L12 -47 Z"/>
      </clipPath>
    </defs>
    <g stroke-linecap="butt" transform="matrix(1,0,0,1,-12,47)" fill="rgb(51,102,255)" text-rendering="geometricPrecision" shape-rendering="geometricPrecision" stroke="rgb(51,102,255)" stroke-miterlimit="1.45">
      <path fill="none" d="M27 146 L107 146 L107 287 L27 287 Z" clip-path="url(#clipPath2)"/>
    </g>
    <g stroke-linecap="butt" font-size="15px" transform="matrix(1,0,0,1,-12,47)" fill="fuchsia" text-rendering="geometricPrecision" font-family="sans-serif" shape-rendering="geometricPrecision" stroke="fuchsia" stroke-miterlimit="1.45">
      <text x="49.0007" xml:space="preserve" y="221.8323" clip-path="url(#clipPath2)" stroke="none">8051</text>
    </g>
    <g stroke-linecap="butt" transform="matrix(1,0,0,1,-12,47)" fill="rgb(51,102,255)" text-rendering="geometricPrecision" shape-rendering="geometricPrecision" stroke="rgb(51,102,255)" stroke-miterlimit="1.45">
      <path fill="none" d="M27 287 L107 287 L107 327 L27 327 Z" clip-path="url(#clipPath2)"/>
    </g>
    <g font-size="15px" stroke-linecap="butt" transform="matrix(1,0,0,1,-12,47)" text-rendering="geometricPrecision" font-family="sans-serif" shape-rendering="geometricPrecision" stroke-miterlimit="1.45">
      <text x="52" xml:space="preserve" y="312.3323" clip-path="url(#clipPath2)" stroke="none">时钟</text>
    </g>
    <g fill="url(#linearGradient1)" text-rendering="geometricPrecision" shape-rendering="geometricPrecision" transform="matrix(1,0,0,1,-12,47)" stroke="url(#linearGradient1)">
      <path d="M41 327 L42 327 L42 367 L41 367 Z" stroke="none" clip-path="url(#clipPath2)"/>
    </g>
    <g stroke-linecap="butt" transform="matrix(1,0,0,1,-12,47)" fill="rgb(51,102,255)" text-rendering="geometricPrecision" shape-rendering="geometricPrecision" stroke="rgb(51,102,255)" stroke-miterlimit="1.45">
      <path fill="none" d="M41 327 L42 327 L42 367 L41 367 Z" clip-path="url(#clipPath2)"/>
    </g>
    <g fill="url(#linearGradient2)" text-rendering="geometricPrecision" shape-rendering="geometricPrecision" transform="matrix(1,0,0,1,-12,47)" stroke="url(#linearGradient2)">
      <path d="M95 327 L96 327 L96 367 L95 367 Z" stroke="none" clip-path="url(#clipPath2)"/>
    </g>
    <g stroke-linecap="butt" transform="matrix(1,0,0,1,-12,47)" fill="rgb(51,102,255)" text-rendering="geometricPrecision" shape-rendering="geometricPrecision" stroke="rgb(51,102,255)" stroke-miterlimit="1.45">
      <path fill="none" d="M95 327 L96 327 L96 367 L95 367 Z" clip-path="url(#clipPath2)"/>
    </g>
    <g fill="url(#linearGradient3)" text-rendering="geometricPrecision" shape-rendering="geometricPrecision" transform="matrix(1,0,0,1,-12,47)" stroke="url(#linearGradient3)">
      <path d="M42 367 L52 367 L52 368 L42 368 Z" stroke="none" clip-path="url(#clipPath2)"/>
    </g>
    <g stroke-linecap="butt" transform="matrix(1,0,0,1,-12,47)" fill="rgb(51,102,255)" text-rendering="geometricPrecision" shape-rendering="geometricPrecision" stroke="rgb(51,102,255)" stroke-miterlimit="1.45">
      <path fill="none" d="M42 367 L52 367 L52 368 L42 368 Z" clip-path="url(#clipPath2)"/>
    </g>
    <g fill="url(#linearGradient4)" text-rendering="geometricPrecision" shape-rendering="geometricPrecision" transform="matrix(1,0,0,1,-12,47)" stroke="url(#linearGradient4)">
      <path d="M77 368 L95 368 L95 369 L77 369 Z" stroke="none" clip-path="url(#clipPath2)"/>
    </g>
    <g stroke-linecap="butt" transform="matrix(1,0,0,1,-12,47)" fill="rgb(51,102,255)" text-rendering="geometricPrecision" shape-rendering="geometricPrecision" stroke="rgb(51,102,255)" stroke-miterlimit="1.45">
      <path fill="none" d="M77 368 L95 368 L95 369 L77 369 Z" clip-path="url(#clipPath2)"/>
    </g>
    <g fill="url(#linearGradient5)" text-rendering="geometricPrecision" shape-rendering="geometricPrecision" transform="matrix(1,0,0,1,-12,47)" stroke="url(#linearGradient5)">
      <path d="M52 362 L53 362 L53 375 L52 375 Z" stroke="none" clip-path="url(#clipPath2)"/>
    </g>
    <g stroke-linecap="butt" transform="matrix(1,0,0,1,-12,47)" fill="rgb(51,102,255)" text-rendering="geometricPrecision" shape-rendering="geometricPrecision" stroke="rgb(51,102,255)" stroke-miterlimit="1.45">
      <path fill="none" d="M52 362 L53 362 L53 375 L52 375 Z" clip-path="url(#clipPath2)"/>
    </g>
    <g fill="url(#linearGradient6)" text-rendering="geometricPrecision" shape-rendering="geometricPrecision" transform="matrix(1,0,0,1,-12,47)" stroke="url(#linearGradient6)">
      <path d="M76 362 L77 362 L77 375 L76 375 Z" stroke="none" clip-path="url(#clipPath2)"/>
    </g>
    <g stroke-linecap="butt" transform="matrix(1,0,0,1,-12,47)" fill="rgb(51,102,255)" text-rendering="geometricPrecision" shape-rendering="geometricPrecision" stroke="rgb(51,102,255)" stroke-miterlimit="1.45">
      <path fill="none" d="M76 362 L77 362 L77 375 L76 375 Z" clip-path="url(#clipPath2)"/>
    </g>
    <g stroke-linecap="butt" transform="matrix(1,0,0,1,-12,47)" fill="rgb(51,102,255)" text-rendering="geometricPrecision" shape-rendering="geometricPrecision" stroke="rgb(51,102,255)" stroke-miterlimit="1.45">
      <path fill="none" d="M59.5 357 L69.5 357 L69.5 377 L59.5 377 Z" clip-path="url(#clipPath2)"/>
    </g>
    <g stroke-linecap="butt" transform="matrix(1,0,0,1,-12,47)" fill="rgb(51,102,255)" text-rendering="geometricPrecision" shape-rendering="geometricPrecision" stroke="rgb(51,102,255)" stroke-miterlimit="1.45">
      <path fill="none" d="M601.5 217 L651.5 217 L651.5 257 L601.5 257 Z" clip-path="url(#clipPath2)"/>
    </g>
    <g font-size="15px" stroke-linecap="butt" transform="matrix(1,0,0,1,-12,47)" text-rendering="geometricPrecision" font-family="sans-serif" shape-rendering="geometricPrecision" stroke-miterlimit="1.45">
      <text x="611.5" xml:space="preserve" y="232.9052" clip-path="url(#clipPath2)" stroke="none">地址</text>
      <text x="611.5" xml:space="preserve" y="251.7594" clip-path="url(#clipPath2)" stroke="none">总线</text>
    </g>
    <g stroke-linecap="butt" transform="matrix(1,0,0,1,-12,47)" fill="rgb(51,102,255)" text-rendering="geometricPrecision" shape-rendering="geometricPrecision" stroke="rgb(51,102,255)" stroke-miterlimit="1.45">
      <path fill="none" d="M601.5 147 L651.5 147 L651.5 187 L601.5 187 Z" clip-path="url(#clipPath2)"/>
    </g>
    <g font-size="15px" stroke-linecap="butt" transform="matrix(1,0,0,1,-12,47)" text-rendering="geometricPrecision" font-family="sans-serif" shape-rendering="geometricPrecision" stroke-miterlimit="1.45">
      <text x="611.5" xml:space="preserve" y="162.9052" clip-path="url(#clipPath2)" stroke="none">数据</text>
      <text x="611.5" xml:space="preserve" y="181.7594" clip-path="url(#clipPath2)" stroke="none">总线</text>
    </g>
    <g stroke-linecap="butt" transform="matrix(1,0,0,1,-12,47)" fill="rgb(51,102,255)" text-rendering="geometricPrecision" shape-rendering="geometricPrecision" stroke="rgb(51,102,255)" stroke-miterlimit="1.45">
      <path fill="none" d="M601.5 287 L651.5 287 L651.5 327 L601.5 327 Z" clip-path="url(#clipPath2)"/>
    </g>
    <g font-size="15px" stroke-linecap="butt" transform="matrix(1,0,0,1,-12,47)" text-rendering="geometricPrecision" font-family="sans-serif" shape-rendering="geometricPrecision" stroke-miterlimit="1.45">
      <text x="611.5" xml:space="preserve" y="302.9052" clip-path="url(#clipPath2)" stroke="none">控制</text>
      <text x="611.5" xml:space="preserve" y="321.7594" clip-path="url(#clipPath2)" stroke="none">总线</text>
    </g>
    <g fill="url(#linearGradient7)" text-rendering="geometricPrecision" shape-rendering="geometricPrecision" transform="matrix(1,0,0,1,-12,47)" stroke="url(#linearGradient7)">
      <path d="M137 56 L251 56 L251 83 L137 83 Z" stroke="none" clip-path="url(#clipPath2)"/>
    </g>
    <g stroke-linecap="butt" transform="matrix(1,0,0,1,-12,47)" fill="rgb(51,102,255)" text-rendering="geometricPrecision" shape-rendering="geometricPrecision" stroke="rgb(51,102,255)" stroke-miterlimit="1.45">
      <path fill="none" d="M137 56 L251 56 L251 83 L137 83 Z" clip-path="url(#clipPath2)"/>
    </g>
    <g font-size="15px" stroke-linecap="butt" transform="matrix(1,0,0,1,-12,47)" text-rendering="geometricPrecision" font-family="sans-serif" shape-rendering="geometricPrecision" stroke-miterlimit="1.45">
      <text x="156.5" xml:space="preserve" y="74.8323" clip-path="url(#clipPath2)" stroke="none">程序存储器</text>
    </g>
    <g fill="url(#linearGradient8)" text-rendering="geometricPrecision" shape-rendering="geometricPrecision" transform="matrix(1,0,0,1,-12,47)" stroke="url(#linearGradient8)">
      <path d="M281 56 L395 56 L395 83 L281 83 Z" stroke="none" clip-path="url(#clipPath2)"/>
    </g>
    <g stroke-linecap="butt" transform="matrix(1,0,0,1,-12,47)" fill="rgb(51,102,255)" text-rendering="geometricPrecision" shape-rendering="geometricPrecision" stroke="rgb(51,102,255)" stroke-miterlimit="1.45">
      <path fill="none" d="M281 56 L395 56 L395 83 L281 83 Z" clip-path="url(#clipPath2)"/>
    </g>
    <g font-size="15px" stroke-linecap="butt" transform="matrix(1,0,0,1,-12,47)" text-rendering="geometricPrecision" font-family="sans-serif" shape-rendering="geometricPrecision" stroke-miterlimit="1.45">
      <text x="300.5" xml:space="preserve" y="74.8323" clip-path="url(#clipPath2)" stroke="none">数据存储器</text>
    </g>
    <g fill="url(#linearGradient9)" text-rendering="geometricPrecision" shape-rendering="geometricPrecision" transform="matrix(1,0,0,1,-12,47)" stroke="url(#linearGradient9)">
      <path d="M425 56 L539 56 L539 83 L425 83 Z" stroke="none" clip-path="url(#clipPath2)"/>
    </g>
    <g stroke-linecap="butt" transform="matrix(1,0,0,1,-12,47)" fill="rgb(51,102,255)" text-rendering="geometricPrecision" shape-rendering="geometricPrecision" stroke="rgb(51,102,255)" stroke-miterlimit="1.45">
      <path fill="none" d="M425 56 L539 56 L539 83 L425 83 Z" clip-path="url(#clipPath2)"/>
    </g>
    <g font-size="15px" stroke-linecap="butt" transform="matrix(1,0,0,1,-12,47)" text-rendering="geometricPrecision" font-family="sans-serif" shape-rendering="geometricPrecision" stroke-miterlimit="1.45">
      <text x="444.5" xml:space="preserve" y="74.8323" clip-path="url(#clipPath2)" stroke="none">计时定数器</text>
    </g>
    <g fill="url(#linearGradient10)" text-rendering="geometricPrecision" shape-rendering="geometricPrecision" transform="matrix(1,0,0,1,-12,47)" stroke="url(#linearGradient10)">
      <path d="M137 368 L251 368 L251 395 L137 395 Z" stroke="none" clip-path="url(#clipPath2)"/>
    </g>
    <g stroke-linecap="butt" transform="matrix(1,0,0,1,-12,47)" fill="rgb(51,102,255)" text-rendering="geometricPrecision" shape-rendering="geometricPrecision" stroke="rgb(51,102,255)" stroke-miterlimit="1.45">
      <path fill="none" d="M137 368 L251 368 L251 395 L137 395 Z" clip-path="url(#clipPath2)"/>
    </g>
    <g font-size="15px" stroke-linecap="butt" transform="matrix(1,0,0,1,-12,47)" text-rendering="geometricPrecision" font-family="sans-serif" shape-rendering="geometricPrecision" stroke-miterlimit="1.45">
      <text x="158.0005" xml:space="preserve" y="386.8323" clip-path="url(#clipPath2)" stroke="none">并行I/O口</text>
    </g>
    <g fill="url(#linearGradient11)" text-rendering="geometricPrecision" shape-rendering="geometricPrecision" transform="matrix(1,0,0,1,-12,47)" stroke="url(#linearGradient11)">
      <path d="M281 368 L395 368 L395 395 L281 395 Z" stroke="none" clip-path="url(#clipPath2)"/>
    </g>
    <g stroke-linecap="butt" transform="matrix(1,0,0,1,-12,47)" fill="rgb(51,102,255)" text-rendering="geometricPrecision" shape-rendering="geometricPrecision" stroke="rgb(51,102,255)" stroke-miterlimit="1.45">
      <path fill="none" d="M281 368 L395 368 L395 395 L281 395 Z" clip-path="url(#clipPath2)"/>
    </g>
    <g font-size="15px" stroke-linecap="butt" transform="matrix(1,0,0,1,-12,47)" text-rendering="geometricPrecision" font-family="sans-serif" shape-rendering="geometricPrecision" stroke-miterlimit="1.45">
      <text x="300.5" xml:space="preserve" y="386.8323" clip-path="url(#clipPath2)" stroke="none">串行通信口</text>
    </g>
    <g fill="url(#linearGradient12)" text-rendering="geometricPrecision" shape-rendering="geometricPrecision" transform="matrix(1,0,0,1,-12,47)" stroke="url(#linearGradient12)">
      <path d="M425 368 L539 368 L539 395 L425 395 Z" stroke="none" clip-path="url(#clipPath2)"/>
    </g>
    <g stroke-linecap="butt" transform="matrix(1,0,0,1,-12,47)" fill="rgb(51,102,255)" text-rendering="geometricPrecision" shape-rendering="geometricPrecision" stroke="rgb(51,102,255)" stroke-miterlimit="1.45">
      <path fill="none" d="M425 368 L539 368 L539 395 L425 395 Z" clip-path="url(#clipPath2)"/>
    </g>
    <g font-size="15px" stroke-linecap="butt" transform="matrix(1,0,0,1,-12,47)" text-rendering="geometricPrecision" font-family="sans-serif" shape-rendering="geometricPrecision" stroke-miterlimit="1.45">
      <text x="452" xml:space="preserve" y="386.8323" clip-path="url(#clipPath2)" stroke="none">中断系统</text>
    </g>
    <g fill="url(#linearGradient13)" text-rendering="geometricPrecision" shape-rendering="geometricPrecision" transform="matrix(1,0,0,1,-12,47)" stroke="url(#linearGradient13)">
      <path d="M271.5 -31.5 L404.5 -31.5 L404.5 8.5 L271.5 8.5 Z" stroke="none" clip-path="url(#clipPath2)"/>
    </g>
    <g stroke-linecap="butt" transform="matrix(1,0,0,1,-12,47)" fill="rgb(51,102,255)" text-rendering="geometricPrecision" shape-rendering="geometricPrecision" stroke="rgb(51,102,255)" stroke-miterlimit="1.45">
      <path fill="none" d="M271.5 -31.5 L404.5 -31.5 L404.5 8.5 L271.5 8.5 Z" clip-path="url(#clipPath2)"/>
    </g>
    <g font-size="15px" stroke-linecap="butt" transform="matrix(1,0,0,1,-12,47)" text-rendering="geometricPrecision" font-family="sans-serif" shape-rendering="geometricPrecision" stroke-miterlimit="1.45">
      <text x="285.5009" xml:space="preserve" y="-6.1677" clip-path="url(#clipPath2)" stroke="none">8051 内部结构</text>
    </g>
    <g text-rendering="geometricPrecision" stroke-miterlimit="1.45" shape-rendering="geometricPrecision" transform="matrix(1,0,0,1,-12,47)" stroke-linecap="butt">
      <path fill="none" d="M107.0239 163.5 L107.0239 170.5 L601.4837 170.5 L601.4837 163.5 Z" clip-path="url(#clipPath2)"/>
    </g>
    <g text-rendering="geometricPrecision" stroke-miterlimit="1.45" shape-rendering="geometricPrecision" transform="matrix(1,0,0,1,-12,47)" stroke-linecap="butt">
      <path fill="none" d="M157 82.9688 L146.5 103.9688 L153.5 103.9688 L153.5 141.9479 L146.5 141.9479 L157 162.9479 L167.5 141.9479 L160.5 141.9479 L160.5 103.9688 L167.5 103.9688 L157 82.9688 Z" clip-path="url(#clipPath2)"/>
    </g>
    <g stroke-linecap="butt" transform="matrix(1,0,0,1,-12,47)" fill="blue" text-rendering="geometricPrecision" shape-rendering="geometricPrecision" stroke="blue" stroke-width="7" stroke-miterlimit="1.45">
      <path fill="none" d="M194 102.2229 L194 163.0202" clip-path="url(#clipPath2)"/>
    </g>
    <g stroke-linecap="butt" transform="matrix(1,0,0,1,-12,47)" fill="blue" text-rendering="geometricPrecision" shape-rendering="geometricPrecision" stroke="blue" stroke-width="7" stroke-miterlimit="1.45">
      <path d="M194 82.9729 L183.5 103.9729 L204.5 103.9729 Z" stroke="none" clip-path="url(#clipPath2)"/>
    </g>
    <g text-rendering="geometricPrecision" stroke-miterlimit="1.45" shape-rendering="geometricPrecision" transform="matrix(1,0,0,1,-12,47)" stroke-linecap="butt">
      <path fill="none" d="M158.1639 171.0108 L147.6639 192.0108 L154.6639 192.0108 L154.6639 347.0066 L147.6639 347.0066 L158.1639 368.0066 L168.6639 347.0066 L161.6639 347.0066 L161.6639 192.0108 L168.6639 192.0108 L158.1639 171.0108 Z" clip-path="url(#clipPath2)"/>
    </g>
    <g stroke-linecap="butt" transform="matrix(1,0,0,1,-12,47)" fill="rgb(255,153,0)" text-rendering="geometricPrecision" shape-rendering="geometricPrecision" stroke="rgb(255,153,0)" stroke-width="7" stroke-miterlimit="1.45">
      <path fill="none" d="M231.9324 102.2569 L231.9324 162.9688" clip-path="url(#clipPath2)"/>
      <path d="M231.9324 83.0069 L221.4324 104.0069 L242.4324 104.0069 Z" clip-path="url(#clipPath2)" stroke="none"/>
      <path fill="none" d="M231.2101 348.7316 L231.2101 241.0141" clip-path="url(#clipPath2)"/>
      <path d="M231.2101 367.9816 L241.7101 346.9816 L220.7101 346.9816 Z" clip-path="url(#clipPath2)" stroke="none"/>
      <path fill="none" d="M194 233.001 L194 171.0284" clip-path="url(#clipPath2)" stroke="blue"/>
      <path fill="none" d="M231 232 L231 171.0064" clip-path="url(#clipPath2)"/>
      <path fill="none" d="M194 240.999 L194 302.9716" clip-path="url(#clipPath2)" stroke="blue"/>
      <path fill="none" d="M194 348.7542 L194 311.0213" clip-path="url(#clipPath2)" stroke="blue"/>
      <path fill="blue" d="M194 368.0042 L204.5 347.0042 L183.5 347.0042 Z" clip-path="url(#clipPath2)" stroke="none"/>
      <path fill="none" d="M379 348.7527 L379 242" clip-path="url(#clipPath2)"/>
      <path d="M379 368.0027 L389.5 347.0027 L368.5 347.0027 Z" clip-path="url(#clipPath2)" stroke="none"/>
      <path fill="none" d="M520 348.7424 L520 241.0265" clip-path="url(#clipPath2)"/>
      <path d="M520 367.9924 L530.5 346.9924 L509.5 346.9924 Z" clip-path="url(#clipPath2)" stroke="none"/>
    </g>
    <g text-rendering="geometricPrecision" stroke-miterlimit="1.45" shape-rendering="geometricPrecision" transform="matrix(1,0,0,1,-12,47)" stroke-linecap="butt">
      <path fill="none" d="M306 82.9742 L295.5 103.9742 L302.5 103.9742 L302.5 141.9922 L295.5 141.9922 L306 162.9922 L316.5 141.9922 L309.5 141.9922 L309.5 103.9742 L316.5 103.9742 L306 82.9742 Z" clip-path="url(#clipPath2)"/>
    </g>
    <g stroke-linecap="butt" transform="matrix(1,0,0,1,-12,47)" fill="blue" text-rendering="geometricPrecision" shape-rendering="geometricPrecision" stroke="blue" stroke-width="7" stroke-miterlimit="1.45">
      <path fill="none" d="M338 102.2229 L338 163.0202" clip-path="url(#clipPath2)"/>
      <path d="M338 82.9729 L327.5 103.9729 L348.5 103.9729 Z" clip-path="url(#clipPath2)" stroke="none"/>
      <path fill="none" d="M378.5699 102.2797 L378.5699 162.9609" clip-path="url(#clipPath2)" stroke="rgb(255,153,0)"/>
      <path fill="rgb(255,153,0)" d="M378.5699 83.0297 L368.0699 104.0297 L389.0699 104.0297 Z" clip-path="url(#clipPath2)" stroke="none"/>
    </g>
    <g text-rendering="geometricPrecision" stroke-miterlimit="1.45" shape-rendering="geometricPrecision" transform="matrix(1,0,0,1,-12,47)" stroke-linecap="butt">
      <path fill="none" d="M306.4458 171.0227 L295.9458 192.0227 L302.9458 192.0227 L302.9458 346.9743 L295.9458 346.9743 L306.4458 367.9743 L316.9458 346.9743 L309.9458 346.9743 L309.9458 192.0227 L316.9458 192.0227 L306.4458 171.0227 Z" clip-path="url(#clipPath2)"/>
    </g>
    <g stroke-linecap="butt" transform="matrix(1,0,0,1,-12,47)" fill="blue" text-rendering="geometricPrecision" shape-rendering="geometricPrecision" stroke="blue" stroke-width="7" stroke-miterlimit="1.45">
      <path fill="none" d="M338 348.7652 L338 170.9752" clip-path="url(#clipPath2)"/>
      <path d="M338 368.0152 L348.5 347.0152 L327.5 347.0152 Z" clip-path="url(#clipPath2)" stroke="none"/>
      <path fill="none" d="M379.4846 232.9775 L379.4846 171.0017" clip-path="url(#clipPath2)" stroke="rgb(255,153,0)"/>
    </g>
    <g text-rendering="geometricPrecision" stroke-miterlimit="1.45" shape-rendering="geometricPrecision" transform="matrix(1,0,0,1,-12,47)" stroke-linecap="butt">
      <path fill="none" d="M447.2957 83.0181 L436.7957 104.0181 L443.7957 104.0181 L443.7957 141.9844 L436.7957 141.9844 L447.2957 162.9844 L457.7957 141.9844 L450.7957 141.9844 L450.7957 104.0181 L457.7957 104.0181 L447.2957 83.0181 Z" clip-path="url(#clipPath2)"/>
    </g>
    <g stroke-linecap="butt" transform="matrix(1,0,0,1,-12,47)" fill="blue" text-rendering="geometricPrecision" shape-rendering="geometricPrecision" stroke="blue" stroke-width="7" stroke-miterlimit="1.45">
      <path fill="none" d="M482 102.2229 L482 163.0202" clip-path="url(#clipPath2)"/>
      <path d="M482 82.9729 L471.5 103.9729 L492.5 103.9729 Z" clip-path="url(#clipPath2)" stroke="none"/>
      <path fill="none" d="M520.0804 102.2778 L520.0804 162.9844" clip-path="url(#clipPath2)" stroke="rgb(255,153,0)"/>
      <path fill="rgb(255,153,0)" d="M520.0804 83.0278 L509.5804 104.0278 L530.5804 104.0278 Z" clip-path="url(#clipPath2)" stroke="none"/>
    </g>
    <g text-rendering="geometricPrecision" stroke-miterlimit="1.45" shape-rendering="geometricPrecision" transform="matrix(1,0,0,1,-12,47)" stroke-linecap="butt">
      <path fill="none" d="M448.155 171.0123 L437.655 192.0123 L444.655 192.0123 L444.655 346.9868 L437.655 346.9868 L448.155 367.9868 L458.655 346.9868 L451.655 346.9868 L451.655 192.0123 L458.655 192.0123 L448.155 171.0123 Z" clip-path="url(#clipPath2)"/>
    </g>
    <g stroke-linecap="butt" transform="matrix(1,0,0,1,-12,47)" fill="blue" text-rendering="geometricPrecision" shape-rendering="geometricPrecision" stroke="blue" stroke-width="7" stroke-miterlimit="1.45">
      <path fill="none" d="M482 348.7652 L482 170.9752" clip-path="url(#clipPath2)"/>
      <path d="M482 368.0152 L492.5 347.0152 L471.5 347.0152 Z" clip-path="url(#clipPath2)" stroke="none"/>
      <path fill="none" d="M520.7606 232.9922 L520.7606 171.0022" clip-path="url(#clipPath2)" stroke="rgb(255,153,0)"/>
      <path fill="none" d="M106.9723 236.953 L153.996 236.953" clip-path="url(#clipPath2)"/>
      <path fill="none" d="M153.9653 307 L106.9582 307" clip-path="url(#clipPath2)" stroke="rgb(255,153,0)"/>
      <path fill="none" d="M601.4934 237 L452.0078 237" clip-path="url(#clipPath2)"/>
      <path fill="none" d="M443.9922 237 L310.0093 237" clip-path="url(#clipPath2)"/>
      <path fill="none" d="M301.9922 237 L162.0234 237" clip-path="url(#clipPath2)"/>
      <path fill="none" d="M302.0039 307 L161.9728 307" clip-path="url(#clipPath2)" stroke="rgb(255,153,0)"/>
      <path fill="none" d="M443.9827 307 L341.0076 307" clip-path="url(#clipPath2)" stroke="rgb(255,153,0)"/>
      <path fill="none" d="M334.9571 307 L310.0234 307" clip-path="url(#clipPath2)" stroke="rgb(255,153,0)"/>
      <path fill="none" d="M601.5219 307 L485.0206 307" clip-path="url(#clipPath2)" stroke="rgb(255,153,0)"/>
      <path fill="none" d="M478.9922 307 L452.0029 307" clip-path="url(#clipPath2)" stroke="rgb(255,153,0)"/>
    </g>
  </g>
</svg>
