<?xml version="1.0" encoding="UTF-8"?><svg xmlns="http://www.w3.org/2000/svg" xmlns:xlink="http://www.w3.org/1999/xlink" fill-opacity="1" color-rendering="auto" color-interpolation="auto" text-rendering="auto" stroke="black" stroke-linecap="square" width="369" stroke-miterlimit="10" shape-rendering="auto" stroke-opacity="1" fill="black" stroke-dasharray="none" font-weight="normal" stroke-width="1" height="368" font-family="'Dialog'" font-style="normal" stroke-linejoin="miter" font-size="12px" stroke-dashoffset="0" image-rendering="auto">
  <!--Generated by ySVG 2.5-->
  <defs id="genericDefs"/>
  <g>
    <defs id="defs1">
      <linearGradient x1="-112.5" gradientUnits="userSpaceOnUse" x2="-32.5" y1="79.1" y2="119.1" id="linearGradient1" spreadMethod="reflect">
        <stop stop-opacity="1" stop-color="rgb(0,153,204)" offset="0%"/>
        <stop stop-opacity="1" stop-color="rgb(0,153,204)" offset="100%"/>
      </linearGradient>
      <linearGradient x1="144.5" gradientUnits="userSpaceOnUse" x2="224.5" y1="79.1" y2="119.1" id="linearGradient2" spreadMethod="reflect">
        <stop stop-opacity="1" stop-color="rgb(0,153,204)" offset="0%"/>
        <stop stop-opacity="1" stop-color="rgb(0,153,204)" offset="100%"/>
      </linearGradient>
      <linearGradient x1="16" gradientUnits="userSpaceOnUse" x2="96" y1="189.6" y2="229.6" id="linearGradient3" spreadMethod="reflect">
        <stop stop-opacity="1" stop-color="rgb(0,153,204)" offset="0%"/>
        <stop stop-opacity="1" stop-color="rgb(0,153,204)" offset="100%"/>
      </linearGradient>
      <linearGradient x1="16" gradientUnits="userSpaceOnUse" x2="96" y1="306.1" y2="346.1" id="linearGradient4" spreadMethod="reflect">
        <stop stop-opacity="1" stop-color="rgb(0,153,204)" offset="0%"/>
        <stop stop-opacity="1" stop-color="rgb(0,153,204)" offset="100%"/>
      </linearGradient>
      <linearGradient x1="-32.5" gradientUnits="userSpaceOnUse" x2="144.5" y1="9.1" y2="49.1" id="linearGradient5" spreadMethod="reflect">
        <stop stop-opacity="1" stop-color="rgb(0,153,204)" offset="0%"/>
        <stop stop-opacity="1" stop-color="rgb(0,153,204)" offset="100%"/>
      </linearGradient>
      <clipPath clipPathUnits="userSpaceOnUse" id="clipPath1">
        <path d="M0 0 L369 0 L369 368 L0 368 L0 0 Z"/>
      </clipPath>
      <clipPath clipPathUnits="userSpaceOnUse" id="clipPath2">
        <path d="M-129 -6 L240 -6 L240 362 L-129 362 L-129 -6 Z"/>
      </clipPath>
    </defs>
    <g fill="url(#linearGradient1)" text-rendering="geometricPrecision" shape-rendering="geometricPrecision" transform="matrix(1,0,0,1,129,6)" stroke="url(#linearGradient1)">
      <path d="M-112.5 79.1 L-32.5 79.1 L-32.5 119.1 L-112.5 119.1 Z" stroke="none" clip-path="url(#clipPath2)"/>
    </g>
    <g stroke-linecap="butt" transform="matrix(1,0,0,1,129,6)" fill="rgb(51,102,255)" text-rendering="geometricPrecision" shape-rendering="geometricPrecision" stroke="rgb(51,102,255)" stroke-miterlimit="1.45">
      <path fill="none" d="M-112.5 79.1 L-32.5 79.1 L-32.5 119.1 L-112.5 119.1 Z" clip-path="url(#clipPath2)"/>
    </g>
    <g font-size="15px" stroke-linecap="butt" transform="matrix(1,0,0,1,129,6)" text-rendering="geometricPrecision" font-family="sans-serif" shape-rendering="geometricPrecision" stroke-miterlimit="1.45">
      <text x="-102.5" xml:space="preserve" y="95.0052" clip-path="url(#clipPath2)" stroke="none">震荡周期</text>
      <text x="-111.4996" xml:space="preserve" y="113.8594" clip-path="url(#clipPath2)" stroke="none">(时钟周期)</text>
    </g>
    <g fill="url(#linearGradient2)" text-rendering="geometricPrecision" shape-rendering="geometricPrecision" transform="matrix(1,0,0,1,129,6)" stroke="url(#linearGradient2)">
      <path d="M144.5 79.1 L224.5 79.1 L224.5 119.1 L144.5 119.1 Z" stroke="none" clip-path="url(#clipPath2)"/>
    </g>
    <g stroke-linecap="butt" transform="matrix(1,0,0,1,129,6)" fill="rgb(51,102,255)" text-rendering="geometricPrecision" shape-rendering="geometricPrecision" stroke="rgb(51,102,255)" stroke-miterlimit="1.45">
      <path fill="none" d="M144.5 79.1 L224.5 79.1 L224.5 119.1 L144.5 119.1 Z" clip-path="url(#clipPath2)"/>
    </g>
    <g font-size="15px" stroke-linecap="butt" transform="matrix(1,0,0,1,129,6)" text-rendering="geometricPrecision" font-family="sans-serif" shape-rendering="geometricPrecision" stroke-miterlimit="1.45">
      <text x="154.5" xml:space="preserve" y="104.4323" clip-path="url(#clipPath2)" stroke="none">状态周期</text>
    </g>
    <g fill="url(#linearGradient3)" text-rendering="geometricPrecision" shape-rendering="geometricPrecision" transform="matrix(1,0,0,1,129,6)" stroke="url(#linearGradient3)">
      <path d="M16 189.6 L96 189.6 L96 229.6 L16 229.6 Z" stroke="none" clip-path="url(#clipPath2)"/>
    </g>
    <g stroke-linecap="butt" transform="matrix(1,0,0,1,129,6)" fill="rgb(51,102,255)" text-rendering="geometricPrecision" shape-rendering="geometricPrecision" stroke="rgb(51,102,255)" stroke-miterlimit="1.45">
      <path fill="none" d="M16 189.6 L96 189.6 L96 229.6 L16 229.6 Z" clip-path="url(#clipPath2)"/>
    </g>
    <g font-size="15px" stroke-linecap="butt" transform="matrix(1,0,0,1,129,6)" text-rendering="geometricPrecision" font-family="sans-serif" shape-rendering="geometricPrecision" stroke-miterlimit="1.45">
      <text x="26" xml:space="preserve" y="214.9323" clip-path="url(#clipPath2)" stroke="none">机器周期</text>
    </g>
    <g fill="url(#linearGradient4)" text-rendering="geometricPrecision" shape-rendering="geometricPrecision" transform="matrix(1,0,0,1,129,6)" stroke="url(#linearGradient4)">
      <path d="M16 306.1 L96 306.1 L96 346.1 L16 346.1 Z" stroke="none" clip-path="url(#clipPath2)"/>
    </g>
    <g stroke-linecap="butt" transform="matrix(1,0,0,1,129,6)" fill="rgb(51,102,255)" text-rendering="geometricPrecision" shape-rendering="geometricPrecision" stroke="rgb(51,102,255)" stroke-miterlimit="1.45">
      <path fill="none" d="M16 306.1 L96 306.1 L96 346.1 L16 346.1 Z" clip-path="url(#clipPath2)"/>
    </g>
    <g font-size="15px" stroke-linecap="butt" transform="matrix(1,0,0,1,129,6)" text-rendering="geometricPrecision" font-family="sans-serif" shape-rendering="geometricPrecision" stroke-miterlimit="1.45">
      <text x="26" xml:space="preserve" y="331.4323" clip-path="url(#clipPath2)" stroke="none">指令周期</text>
    </g>
    <g fill="url(#linearGradient5)" text-rendering="geometricPrecision" shape-rendering="geometricPrecision" transform="matrix(1,0,0,1,129,6)" stroke="url(#linearGradient5)">
      <path d="M-32.5 9.1 L144.5 9.1 L144.5 49.1 L-32.5 49.1 Z" stroke="none" clip-path="url(#clipPath2)"/>
    </g>
    <g stroke-linecap="butt" transform="matrix(1,0,0,1,129,6)" fill="rgb(51,102,255)" text-rendering="geometricPrecision" shape-rendering="geometricPrecision" stroke="rgb(51,102,255)" stroke-miterlimit="1.45">
      <path fill="none" d="M-32.5 9.1 L144.5 9.1 L144.5 49.1 L-32.5 49.1 Z" clip-path="url(#clipPath2)"/>
      <text x="-4" y="33.3637" clip-path="url(#clipPath2)" fill="black" font-family="sans-serif" stroke="none" xml:space="preserve">单片机工作的基本时序</text>
    </g>
    <g stroke-linecap="butt" transform="matrix(1,0,0,1,129,6)" fill="rgb(51,153,102)" text-rendering="geometricPrecision" shape-rendering="geometricPrecision" stroke-dasharray="6,2" stroke="rgb(51,153,102)" stroke-miterlimit="1.45">
      <path fill="none" d="M-32.5006 99.1 L136.4746 99.1" clip-path="url(#clipPath2)"/>
    </g>
    <g stroke-linecap="butt" transform="matrix(1,0,0,1,129,6)" fill="rgb(51,153,102)" text-rendering="geometricPrecision" shape-rendering="geometricPrecision" stroke-dasharray="6,2" stroke="rgb(51,153,102)" stroke-miterlimit="1.45">
      <path d="M144.4746 99.1 L132.4746 94.1 L135.4746 99.1 L132.4746 104.1 Z" stroke="none" clip-path="url(#clipPath2)"/>
      <rect x="34.5002" width="42.9996" height="22.8542" y="87.6729" clip-path="url(#clipPath2)" stroke="none"/>
    </g>
    <g font-size="15px" stroke-linecap="butt" transform="matrix(1,0,0,1,129,6)" text-rendering="geometricPrecision" font-family="sans-serif" shape-rendering="geometricPrecision" stroke-miterlimit="1.45">
      <text x="36.5002" xml:space="preserve" y="104.4323" clip-path="url(#clipPath2)" stroke="none">乘以2</text>
    </g>
    <g stroke-linecap="butt" transform="matrix(1,0,0,1,129,6)" fill="rgb(51,153,102)" text-rendering="geometricPrecision" shape-rendering="geometricPrecision" stroke-dasharray="6,2" stroke="rgb(51,153,102)" stroke-miterlimit="1.45">
      <path fill="none" d="M161.2533 119.0904 L85.3211 184.3861" clip-path="url(#clipPath2)"/>
      <path d="M79.2554 189.6021 L91.614 185.5692 L86.0794 183.7341 L85.094 177.987 Z" clip-path="url(#clipPath2)" stroke="none"/>
      <rect x="98.7502" width="42.9996" height="22.8542" y="142.9229" clip-path="url(#clipPath2)" stroke="none"/>
    </g>
    <g font-size="15px" stroke-linecap="butt" transform="matrix(1,0,0,1,129,6)" text-rendering="geometricPrecision" font-family="sans-serif" shape-rendering="geometricPrecision" stroke-miterlimit="1.45">
      <text x="100.7502" xml:space="preserve" y="159.6823" clip-path="url(#clipPath2)" stroke="none">乘以6</text>
    </g>
    <g stroke-linecap="butt" transform="matrix(1,0,0,1,129,6)" fill="rgb(51,153,102)" text-rendering="geometricPrecision" shape-rendering="geometricPrecision" stroke-dasharray="6,2" stroke="rgb(51,153,102)" stroke-miterlimit="1.45">
      <path fill="none" d="M-49.2533 119.0904 L26.6789 184.3861" clip-path="url(#clipPath2)"/>
      <path d="M32.7446 189.6021 L26.906 177.987 L25.9206 183.7341 L20.386 185.5691 Z" clip-path="url(#clipPath2)" stroke="none"/>
      <rect x="-34.2496" width="51.9993" height="22.8542" y="142.9229" clip-path="url(#clipPath2)" stroke="none"/>
    </g>
    <g font-size="15px" stroke-linecap="butt" transform="matrix(1,0,0,1,129,6)" text-rendering="geometricPrecision" font-family="sans-serif" shape-rendering="geometricPrecision" stroke-miterlimit="1.45">
      <text x="-32.2496" xml:space="preserve" y="159.6823" clip-path="url(#clipPath2)" stroke="none">乘以12</text>
    </g>
    <g stroke-linecap="butt" transform="matrix(1,0,0,1,129,6)" fill="rgb(51,153,102)" text-rendering="geometricPrecision" shape-rendering="geometricPrecision" stroke-dasharray="6,2" stroke="rgb(51,153,102)" stroke-miterlimit="1.45">
      <path fill="none" d="M56 229.595 L56 298.0733" clip-path="url(#clipPath2)"/>
      <path d="M56 306.0733 L61 294.0733 L56 297.0733 L51 294.0733 Z" clip-path="url(#clipPath2)" stroke="none"/>
      <rect x="22.5004" width="66.9993" height="22.8542" y="256.4229" clip-path="url(#clipPath2)" stroke="none"/>
    </g>
    <g font-size="15px" stroke-linecap="butt" transform="matrix(1,0,0,1,129,6)" text-rendering="geometricPrecision" font-family="sans-serif" shape-rendering="geometricPrecision" stroke-miterlimit="1.45">
      <text x="24.5004" xml:space="preserve" y="273.1823" clip-path="url(#clipPath2)" stroke="none">乘以1或x</text>
    </g>
  </g>
</svg>
