<?xml version="1.0" encoding="UTF-8"?><svg xmlns="http://www.w3.org/2000/svg" xmlns:xlink="http://www.w3.org/1999/xlink" fill-opacity="1" color-rendering="auto" color-interpolation="auto" text-rendering="auto" stroke="black" stroke-linecap="square" width="300" stroke-miterlimit="10" shape-rendering="auto" stroke-opacity="1" fill="black" stroke-dasharray="none" font-weight="normal" stroke-width="1" height="483" font-family="'Dialog'" font-style="normal" stroke-linejoin="miter" font-size="12px" stroke-dashoffset="0" image-rendering="auto">
  <!--Generated by ySVG 2.5-->
  <defs id="genericDefs"/>
  <g>
    <defs id="defs1">
      <linearGradient x1="428" gradientUnits="userSpaceOnUse" x2="508" y1="111" y2="502" id="linearGradient1" spreadMethod="reflect">
        <stop stop-opacity="1" stop-color="white" offset="0%"/>
        <stop stop-opacity="1" stop-color="white" offset="100%"/>
      </linearGradient>
      <linearGradient x1="428" gradientUnits="userSpaceOnUse" x2="508" y1="89" y2="129" id="linearGradient2" spreadMethod="reflect">
        <stop stop-opacity="1" stop-color="white" offset="0%"/>
        <stop stop-opacity="1" stop-color="white" offset="100%"/>
      </linearGradient>
      <linearGradient x1="429" gradientUnits="userSpaceOnUse" x2="509" y1="71" y2="111" id="linearGradient3" spreadMethod="reflect">
        <stop stop-opacity="1" stop-color="white" offset="0%"/>
        <stop stop-opacity="1" stop-color="white" offset="100%"/>
      </linearGradient>
      <linearGradient x1="400.5" gradientUnits="userSpaceOnUse" x2="535.5" y1="57" y2="97" id="linearGradient4" spreadMethod="reflect">
        <stop stop-opacity="1" stop-color="rgb(0,153,204)" offset="0%"/>
        <stop stop-opacity="1" stop-color="rgb(0,153,204)" offset="100%"/>
      </linearGradient>
      <clipPath clipPathUnits="userSpaceOnUse" id="clipPath1">
        <path d="M0 0 L300 0 L300 483 L0 483 L0 0 Z"/>
      </clipPath>
      <clipPath clipPathUnits="userSpaceOnUse" id="clipPath2">
        <path d="M317 42 L617 42 L617 525 L317 525 L317 42 Z"/>
      </clipPath>
    </defs>
    <g stroke-linecap="butt" transform="matrix(1,0,0,1,-317,-42)" fill="rgb(51,102,255)" text-rendering="geometricPrecision" shape-rendering="geometricPrecision" stroke="rgb(51,102,255)" stroke-miterlimit="1.45">
      <path fill="none" d="M421 462 L515 462 L515 470 L421 470 Z" clip-path="url(#clipPath2)"/>
    </g>
    <g stroke-linecap="butt" transform="matrix(1,0,0,1,-317,-42)" fill="rgb(51,102,255)" text-rendering="geometricPrecision" shape-rendering="geometricPrecision" stroke="rgb(51,102,255)" stroke-miterlimit="1.45">
      <path fill="none" d="M421 482 L515 482 L515 490 L421 490 Z" clip-path="url(#clipPath2)"/>
    </g>
    <g stroke-linecap="butt" transform="matrix(1,0,0,1,-317,-42)" fill="rgb(51,102,255)" text-rendering="geometricPrecision" shape-rendering="geometricPrecision" stroke="rgb(51,102,255)" stroke-miterlimit="1.45">
      <path fill="none" d="M421 444 L515 444 L515 452 L421 452 Z" clip-path="url(#clipPath2)"/>
    </g>
    <g stroke-linecap="butt" transform="matrix(1,0,0,1,-317,-42)" fill="rgb(51,102,255)" text-rendering="geometricPrecision" shape-rendering="geometricPrecision" stroke="rgb(51,102,255)" stroke-miterlimit="1.45">
      <path fill="none" d="M421 424 L515 424 L515 432 L421 432 Z" clip-path="url(#clipPath2)"/>
    </g>
    <g stroke-linecap="butt" transform="matrix(1,0,0,1,-317,-42)" fill="rgb(51,102,255)" text-rendering="geometricPrecision" shape-rendering="geometricPrecision" stroke="rgb(51,102,255)" stroke-miterlimit="1.45">
      <path fill="none" d="M421 406 L515 406 L515 414 L421 414 Z" clip-path="url(#clipPath2)"/>
    </g>
    <g stroke-linecap="butt" transform="matrix(1,0,0,1,-317,-42)" fill="rgb(51,102,255)" text-rendering="geometricPrecision" shape-rendering="geometricPrecision" stroke="rgb(51,102,255)" stroke-miterlimit="1.45">
      <path fill="none" d="M421 388 L515 388 L515 396 L421 396 Z" clip-path="url(#clipPath2)"/>
    </g>
    <g stroke-linecap="butt" transform="matrix(1,0,0,1,-317,-42)" fill="rgb(51,102,255)" text-rendering="geometricPrecision" shape-rendering="geometricPrecision" stroke="rgb(51,102,255)" stroke-miterlimit="1.45">
      <path fill="none" d="M421 368 L515 368 L515 376 L421 376 Z" clip-path="url(#clipPath2)"/>
    </g>
    <g stroke-linecap="butt" transform="matrix(1,0,0,1,-317,-42)" fill="rgb(51,102,255)" text-rendering="geometricPrecision" shape-rendering="geometricPrecision" stroke="rgb(51,102,255)" stroke-miterlimit="1.45">
      <path fill="none" d="M421 350 L515 350 L515 358 L421 358 Z" clip-path="url(#clipPath2)"/>
    </g>
    <g stroke-linecap="butt" transform="matrix(1,0,0,1,-317,-42)" fill="rgb(51,102,255)" text-rendering="geometricPrecision" shape-rendering="geometricPrecision" stroke="rgb(51,102,255)" stroke-miterlimit="1.45">
      <path fill="none" d="M421 330 L515 330 L515 338 L421 338 Z" clip-path="url(#clipPath2)"/>
    </g>
    <g stroke-linecap="butt" transform="matrix(1,0,0,1,-317,-42)" fill="rgb(51,102,255)" text-rendering="geometricPrecision" shape-rendering="geometricPrecision" stroke="rgb(51,102,255)" stroke-miterlimit="1.45">
      <path fill="none" d="M421 312 L515 312 L515 320 L421 320 Z" clip-path="url(#clipPath2)"/>
    </g>
    <g stroke-linecap="butt" transform="matrix(1,0,0,1,-317,-42)" fill="rgb(51,102,255)" text-rendering="geometricPrecision" shape-rendering="geometricPrecision" stroke="rgb(51,102,255)" stroke-miterlimit="1.45">
      <path fill="none" d="M421 292 L515 292 L515 300 L421 300 Z" clip-path="url(#clipPath2)"/>
    </g>
    <g stroke-linecap="butt" transform="matrix(1,0,0,1,-317,-42)" fill="rgb(51,102,255)" text-rendering="geometricPrecision" shape-rendering="geometricPrecision" stroke="rgb(51,102,255)" stroke-miterlimit="1.45">
      <path fill="none" d="M421 274 L515 274 L515 282 L421 282 Z" clip-path="url(#clipPath2)"/>
    </g>
    <g stroke-linecap="butt" transform="matrix(1,0,0,1,-317,-42)" fill="rgb(51,102,255)" text-rendering="geometricPrecision" shape-rendering="geometricPrecision" stroke="rgb(51,102,255)" stroke-miterlimit="1.45">
      <path fill="none" d="M421 254 L515 254 L515 262 L421 262 Z" clip-path="url(#clipPath2)"/>
    </g>
    <g stroke-linecap="butt" transform="matrix(1,0,0,1,-317,-42)" fill="rgb(51,102,255)" text-rendering="geometricPrecision" shape-rendering="geometricPrecision" stroke="rgb(51,102,255)" stroke-miterlimit="1.45">
      <path fill="none" d="M421 236 L515 236 L515 244 L421 244 Z" clip-path="url(#clipPath2)"/>
    </g>
    <g stroke-linecap="butt" transform="matrix(1,0,0,1,-317,-42)" fill="rgb(51,102,255)" text-rendering="geometricPrecision" shape-rendering="geometricPrecision" stroke="rgb(51,102,255)" stroke-miterlimit="1.45">
      <path fill="none" d="M421 216 L515 216 L515 224 L421 224 Z" clip-path="url(#clipPath2)"/>
    </g>
    <g stroke-linecap="butt" transform="matrix(1,0,0,1,-317,-42)" fill="rgb(51,102,255)" text-rendering="geometricPrecision" shape-rendering="geometricPrecision" stroke="rgb(51,102,255)" stroke-miterlimit="1.45">
      <path fill="none" d="M421 198 L515 198 L515 206 L421 206 Z" clip-path="url(#clipPath2)"/>
    </g>
    <g stroke-linecap="butt" transform="matrix(1,0,0,1,-317,-42)" fill="rgb(51,102,255)" text-rendering="geometricPrecision" shape-rendering="geometricPrecision" stroke="rgb(51,102,255)" stroke-miterlimit="1.45">
      <path fill="none" d="M421 178 L515 178 L515 186 L421 186 Z" clip-path="url(#clipPath2)"/>
    </g>
    <g stroke-linecap="butt" transform="matrix(1,0,0,1,-317,-42)" fill="rgb(51,102,255)" text-rendering="geometricPrecision" shape-rendering="geometricPrecision" stroke="rgb(51,102,255)" stroke-miterlimit="1.45">
      <path fill="none" d="M421 160 L515 160 L515 168 L421 168 Z" clip-path="url(#clipPath2)"/>
    </g>
    <g stroke-linecap="butt" transform="matrix(1,0,0,1,-317,-42)" fill="rgb(51,102,255)" text-rendering="geometricPrecision" shape-rendering="geometricPrecision" stroke="rgb(51,102,255)" stroke-miterlimit="1.45">
      <path fill="none" d="M421 122 L515 122 L515 130 L421 130 Z" clip-path="url(#clipPath2)"/>
    </g>
    <g stroke-linecap="butt" transform="matrix(1,0,0,1,-317,-42)" fill="rgb(51,102,255)" text-rendering="geometricPrecision" shape-rendering="geometricPrecision" stroke="rgb(51,102,255)" stroke-miterlimit="1.45">
      <path fill="none" d="M421 140 L515 140 L515 148 L421 148 Z" clip-path="url(#clipPath2)"/>
    </g>
    <g fill="url(#linearGradient1)" text-rendering="geometricPrecision" shape-rendering="geometricPrecision" transform="matrix(1,0,0,1,-317,-42)" stroke="url(#linearGradient1)">
      <path d="M428 111 L508 111 L508 502 L428 502 Z" stroke="none" clip-path="url(#clipPath2)"/>
    </g>
    <g stroke-linecap="butt" transform="matrix(1,0,0,1,-317,-42)" fill="rgb(51,102,255)" text-rendering="geometricPrecision" shape-rendering="geometricPrecision" stroke="rgb(51,102,255)" stroke-miterlimit="1.45">
      <path fill="none" d="M428 111 L508 111 L508 502 L428 502 Z" clip-path="url(#clipPath2)"/>
    </g>
    <g font-size="15px" stroke-linecap="butt" transform="matrix(1,0,0,1,-317,-42)" text-rendering="geometricPrecision" font-family="sans-serif" shape-rendering="geometricPrecision" stroke-miterlimit="1.45">
      <text x="436.5002" xml:space="preserve" y="132.7171" clip-path="url(#clipPath2)" stroke="none">1</text>
      <text x="436.5002" xml:space="preserve" y="151.5713" clip-path="url(#clipPath2)" stroke="none">2</text>
      <text x="436.5002" xml:space="preserve" y="170.4255" clip-path="url(#clipPath2)" stroke="none">3</text>
      <text x="436.5002" xml:space="preserve" y="189.2798" clip-path="url(#clipPath2)" stroke="none">4</text>
      <text x="436.5002" xml:space="preserve" y="208.134" clip-path="url(#clipPath2)" stroke="none">5</text>
      <text x="436.5002" xml:space="preserve" y="226.9882" clip-path="url(#clipPath2)" stroke="none">6</text>
      <text x="436.5002" xml:space="preserve" y="245.8425" clip-path="url(#clipPath2)" stroke="none">7</text>
      <text x="436.5002" xml:space="preserve" y="264.6967" clip-path="url(#clipPath2)" stroke="none">8</text>
      <text x="436.5002" xml:space="preserve" y="283.5509" clip-path="url(#clipPath2)" stroke="none">9</text>
      <text x="432.0004" xml:space="preserve" y="302.4052" clip-path="url(#clipPath2)" stroke="none">10</text>
      <text x="432.0004" xml:space="preserve" y="321.2594" clip-path="url(#clipPath2)" stroke="none">11</text>
      <text x="432.0004" xml:space="preserve" y="340.1136" clip-path="url(#clipPath2)" stroke="none">12</text>
      <text x="432.0004" xml:space="preserve" y="358.9679" clip-path="url(#clipPath2)" stroke="none">13</text>
      <text x="432.0004" xml:space="preserve" y="377.8221" clip-path="url(#clipPath2)" stroke="none">14</text>
      <text x="432.0004" xml:space="preserve" y="396.6763" clip-path="url(#clipPath2)" stroke="none">15</text>
      <text x="432.0004" xml:space="preserve" y="415.5306" clip-path="url(#clipPath2)" stroke="none">16</text>
      <text x="432.0004" xml:space="preserve" y="434.3848" clip-path="url(#clipPath2)" stroke="none">17</text>
      <text x="432.0004" xml:space="preserve" y="453.239" clip-path="url(#clipPath2)" stroke="none">18</text>
      <text x="432.0004" xml:space="preserve" y="472.0933" clip-path="url(#clipPath2)" stroke="none">19</text>
      <text x="432.0004" xml:space="preserve" y="490.9475" clip-path="url(#clipPath2)" stroke="none">20</text>
    </g>
    <g font-size="15px" stroke-linecap="butt" transform="matrix(1,0,0,1,-317,-42)" text-rendering="geometricPrecision" font-family="sans-serif" shape-rendering="geometricPrecision" stroke-miterlimit="1.45">
      <text x="486.0004" xml:space="preserve" y="132.7171" clip-path="url(#clipPath2)" stroke="none">40</text>
      <text x="486.0004" xml:space="preserve" y="151.5713" clip-path="url(#clipPath2)" stroke="none">39</text>
      <text x="486.0004" xml:space="preserve" y="170.4255" clip-path="url(#clipPath2)" stroke="none">38</text>
      <text x="486.0004" xml:space="preserve" y="189.2798" clip-path="url(#clipPath2)" stroke="none">37</text>
      <text x="486.0004" xml:space="preserve" y="208.134" clip-path="url(#clipPath2)" stroke="none">36</text>
      <text x="486.0004" xml:space="preserve" y="226.9882" clip-path="url(#clipPath2)" stroke="none">35</text>
      <text x="486.0004" xml:space="preserve" y="245.8425" clip-path="url(#clipPath2)" stroke="none">34</text>
      <text x="486.0004" xml:space="preserve" y="264.6967" clip-path="url(#clipPath2)" stroke="none">33</text>
      <text x="486.0004" xml:space="preserve" y="283.5509" clip-path="url(#clipPath2)" stroke="none">32</text>
      <text x="486.0004" xml:space="preserve" y="302.4052" clip-path="url(#clipPath2)" stroke="none">31</text>
      <text x="486.0004" xml:space="preserve" y="321.2594" clip-path="url(#clipPath2)" stroke="none">30</text>
      <text x="486.0004" xml:space="preserve" y="340.1136" clip-path="url(#clipPath2)" stroke="none">29</text>
      <text x="486.0004" xml:space="preserve" y="358.9679" clip-path="url(#clipPath2)" stroke="none">28</text>
      <text x="486.0004" xml:space="preserve" y="377.8221" clip-path="url(#clipPath2)" stroke="none">27</text>
      <text x="486.0004" xml:space="preserve" y="396.6763" clip-path="url(#clipPath2)" stroke="none">26</text>
      <text x="486.0004" xml:space="preserve" y="415.5306" clip-path="url(#clipPath2)" stroke="none">25</text>
      <text x="486.0004" xml:space="preserve" y="434.3848" clip-path="url(#clipPath2)" stroke="none">24</text>
      <text x="486.0004" xml:space="preserve" y="453.239" clip-path="url(#clipPath2)" stroke="none">23</text>
      <text x="486.0004" xml:space="preserve" y="472.0933" clip-path="url(#clipPath2)" stroke="none">22</text>
      <text x="486.0004" xml:space="preserve" y="490.9475" clip-path="url(#clipPath2)" stroke="none">21</text>
    </g>
    <g fill="url(#linearGradient2)" text-rendering="geometricPrecision" shape-rendering="geometricPrecision" transform="matrix(1,0,0,1,-317,-42)" stroke="url(#linearGradient2)">
      <circle r="20" clip-path="url(#clipPath2)" cx="468" cy="109" stroke="none"/>
    </g>
    <g stroke-linecap="butt" transform="matrix(1,0,0,1,-317,-42)" fill="rgb(51,102,255)" text-rendering="geometricPrecision" shape-rendering="geometricPrecision" stroke="rgb(51,102,255)" stroke-miterlimit="1.45">
      <circle fill="none" r="20" clip-path="url(#clipPath2)" cx="468" cy="109"/>
    </g>
    <g fill="url(#linearGradient3)" text-rendering="geometricPrecision" shape-rendering="geometricPrecision" transform="matrix(1,0,0,1,-317,-42)" stroke="url(#linearGradient3)">
      <path d="M429 71 L509 71 L509 111 L429 111 Z" stroke="none" clip-path="url(#clipPath2)"/>
    </g>
    <g font-size="15px" stroke-linecap="butt" transform="matrix(1,0,0,1,-317,-42)" text-rendering="geometricPrecision" font-family="sans-serif" shape-rendering="geometricPrecision" stroke-miterlimit="1.45">
      <text x="378.9998" xml:space="preserve" y="136.7171" clip-path="url(#clipPath2)" stroke="none">P1.0</text>
      <text x="378.9998" xml:space="preserve" y="155.5713" clip-path="url(#clipPath2)" stroke="none">P1.1</text>
      <text x="378.9998" xml:space="preserve" y="174.4255" clip-path="url(#clipPath2)" stroke="none">P1.2</text>
      <text x="378.9998" xml:space="preserve" y="193.2798" clip-path="url(#clipPath2)" stroke="none">P1.3</text>
      <text x="378.9998" xml:space="preserve" y="212.134" clip-path="url(#clipPath2)" stroke="none">P1.4</text>
      <text x="378.9998" xml:space="preserve" y="230.9882" clip-path="url(#clipPath2)" stroke="none">P1.5</text>
      <text x="378.9998" xml:space="preserve" y="249.8425" clip-path="url(#clipPath2)" stroke="none">P1.6</text>
      <text x="378.9998" xml:space="preserve" y="268.6967" clip-path="url(#clipPath2)" stroke="none">P1.7</text>
      <text x="352.0009" xml:space="preserve" y="287.5509" clip-path="url(#clipPath2)" stroke="none">RST/Vpd</text>
      <text x="343.0013" xml:space="preserve" y="306.4052" clip-path="url(#clipPath2)" stroke="none">P3.0/RXD</text>
      <text x="343.0013" xml:space="preserve" y="325.2594" clip-path="url(#clipPath2)" stroke="none">P3.1/TXD</text>
      <text x="334.0016" xml:space="preserve" y="344.1136" clip-path="url(#clipPath2)" stroke="none">P3.2/INT0</text>
      <text x="334.0016" xml:space="preserve" y="362.9679" clip-path="url(#clipPath2)" stroke="none">P3.3/INT1</text>
      <text x="352.0009" xml:space="preserve" y="381.8221" clip-path="url(#clipPath2)" stroke="none">P3.4/T0</text>
      <text x="352.0009" xml:space="preserve" y="400.6763" clip-path="url(#clipPath2)" stroke="none">P3.5/T1</text>
      <text x="352.0009" xml:space="preserve" y="419.5306" clip-path="url(#clipPath2)" stroke="none">P3.6/WR</text>
      <text x="352.0009" xml:space="preserve" y="438.3848" clip-path="url(#clipPath2)" stroke="none">P3.7/RD</text>
      <text x="370.0002" xml:space="preserve" y="457.239" clip-path="url(#clipPath2)" stroke="none">XTAL2</text>
      <text x="370.0002" xml:space="preserve" y="476.0933" clip-path="url(#clipPath2)" stroke="none">XTAL1</text>
      <text x="387.9995" xml:space="preserve" y="494.9475" clip-path="url(#clipPath2)" stroke="none">Vss</text>
    </g>
    <g text-rendering="geometricPrecision" stroke-miterlimit="1.45" shape-rendering="geometricPrecision" transform="matrix(1,0,0,1,-317,-42)" stroke-linecap="butt">
      <path fill="none" d="M388.5 329 L404.5 329 L404.5 330 L388.5 330 Z" clip-path="url(#clipPath2)"/>
    </g>
    <g text-rendering="geometricPrecision" stroke-miterlimit="1.45" shape-rendering="geometricPrecision" transform="matrix(1,0,0,1,-317,-42)" stroke-linecap="butt">
      <path fill="none" d="M382.5 347 L404.5 347 L404.5 348 L382.5 348 Z" clip-path="url(#clipPath2)"/>
    </g>
    <g text-rendering="geometricPrecision" stroke-miterlimit="1.45" shape-rendering="geometricPrecision" transform="matrix(1,0,0,1,-317,-42)" stroke-linecap="butt">
      <path fill="none" d="M395.75 422.5 L414.5 422.5 L414.5 423.5 L395.75 423.5 Z" clip-path="url(#clipPath2)"/>
    </g>
    <g text-rendering="geometricPrecision" stroke-miterlimit="1.45" shape-rendering="geometricPrecision" transform="matrix(1,0,0,1,-317,-42)" stroke-linecap="butt">
      <path fill="none" d="M395.75 402 L414.5 402 L414.5 403 L395.75 403 Z" clip-path="url(#clipPath2)"/>
    </g>
    <g font-size="15px" stroke-linecap="butt" transform="matrix(1,0,0,1,-317,-42)" text-rendering="geometricPrecision" font-family="sans-serif" shape-rendering="geometricPrecision" stroke-miterlimit="1.45">
      <text x="525.5015" xml:space="preserve" y="132.7171" clip-path="url(#clipPath2)" stroke="none">Vcc</text>
      <text x="525.5015" xml:space="preserve" y="151.5713" clip-path="url(#clipPath2)" stroke="none">P0.0</text>
      <text x="525.5015" xml:space="preserve" y="170.4255" clip-path="url(#clipPath2)" stroke="none">P0.1</text>
      <text x="525.5015" xml:space="preserve" y="189.2798" clip-path="url(#clipPath2)" stroke="none">P0.2</text>
      <text x="525.5015" xml:space="preserve" y="208.134" clip-path="url(#clipPath2)" stroke="none">P0.3</text>
      <text x="525.5015" xml:space="preserve" y="226.9882" clip-path="url(#clipPath2)" stroke="none">P0.4</text>
      <text x="525.5015" xml:space="preserve" y="245.8425" clip-path="url(#clipPath2)" stroke="none">P0.5</text>
      <text x="525.5015" xml:space="preserve" y="264.6967" clip-path="url(#clipPath2)" stroke="none">P0.6</text>
      <text x="525.5015" xml:space="preserve" y="283.5509" clip-path="url(#clipPath2)" stroke="none">P0.7</text>
      <text x="525.5015" xml:space="preserve" y="302.4052" clip-path="url(#clipPath2)" stroke="none">EA/Vpp</text>
      <text x="525.5015" xml:space="preserve" y="321.2594" clip-path="url(#clipPath2)" stroke="none">ALE/PROG</text>
      <text x="525.5015" xml:space="preserve" y="340.1136" clip-path="url(#clipPath2)" stroke="none">PSEN</text>
      <text x="525.5015" xml:space="preserve" y="358.9679" clip-path="url(#clipPath2)" stroke="none">P2.7</text>
      <text x="525.5015" xml:space="preserve" y="377.8221" clip-path="url(#clipPath2)" stroke="none">P2.6</text>
      <text x="525.5015" xml:space="preserve" y="396.6763" clip-path="url(#clipPath2)" stroke="none">P2.5</text>
      <text x="525.5015" xml:space="preserve" y="415.5306" clip-path="url(#clipPath2)" stroke="none">P2.4</text>
      <text x="525.5015" xml:space="preserve" y="434.3848" clip-path="url(#clipPath2)" stroke="none">P2.3</text>
      <text x="525.5015" xml:space="preserve" y="453.239" clip-path="url(#clipPath2)" stroke="none">P2.2</text>
      <text x="525.5015" xml:space="preserve" y="472.0933" clip-path="url(#clipPath2)" stroke="none">P2.1</text>
      <text x="525.5015" xml:space="preserve" y="490.9475" clip-path="url(#clipPath2)" stroke="none">P2.0</text>
    </g>
    <g text-rendering="geometricPrecision" stroke-miterlimit="1.45" shape-rendering="geometricPrecision" transform="matrix(1,0,0,1,-317,-42)" stroke-linecap="butt">
      <path fill="none" d="M526.5 286 L542.5 286 L542.5 287 L526.5 287 Z" clip-path="url(#clipPath2)"/>
    </g>
    <g text-rendering="geometricPrecision" stroke-miterlimit="1.45" shape-rendering="geometricPrecision" transform="matrix(1,0,0,1,-317,-42)" stroke-linecap="butt">
      <path fill="none" d="M526.5 324 L554 324 L554 325 L526.5 325 Z" clip-path="url(#clipPath2)"/>
    </g>
    <g text-rendering="geometricPrecision" stroke-miterlimit="1.45" shape-rendering="geometricPrecision" transform="matrix(1,0,0,1,-317,-42)" stroke-linecap="butt">
      <path fill="none" d="M558 306 L590.5 306 L590.5 307 L558 307 Z" clip-path="url(#clipPath2)"/>
    </g>
    <g fill="url(#linearGradient4)" text-rendering="geometricPrecision" shape-rendering="geometricPrecision" transform="matrix(1,0,0,1,-317,-42)" stroke="url(#linearGradient4)">
      <path d="M400.5 57 L535.5 57 L535.5 97 L400.5 97 Z" stroke="none" clip-path="url(#clipPath2)"/>
    </g>
    <g stroke-linecap="butt" transform="matrix(1,0,0,1,-317,-42)" fill="rgb(51,102,255)" text-rendering="geometricPrecision" shape-rendering="geometricPrecision" stroke="rgb(51,102,255)" stroke-miterlimit="1.45">
      <path fill="none" d="M400.5 57 L535.5 57 L535.5 97 L400.5 97 Z" clip-path="url(#clipPath2)"/>
    </g>
    <g font-size="15px" stroke-linecap="butt" transform="matrix(1,0,0,1,-317,-42)" text-rendering="geometricPrecision" font-family="sans-serif" shape-rendering="geometricPrecision" stroke-miterlimit="1.45">
      <text x="415.5009" xml:space="preserve" y="82.3323" clip-path="url(#clipPath2)" stroke="none">80C51引脚封装</text>
    </g>
  </g>
</svg>
