<?xml version="1.0" encoding="UTF-8"?><svg xmlns="http://www.w3.org/2000/svg" xmlns:xlink="http://www.w3.org/1999/xlink" fill-opacity="1" color-rendering="auto" color-interpolation="auto" text-rendering="auto" stroke="black" stroke-linecap="square" width="674" stroke-miterlimit="10" shape-rendering="auto" stroke-opacity="1" fill="black" stroke-dasharray="none" font-weight="normal" stroke-width="1" height="406" font-family="'Dialog'" font-style="normal" stroke-linejoin="miter" font-size="12px" stroke-dashoffset="0" image-rendering="auto">
  <!--Generated by ySVG 2.5-->
  <defs id="genericDefs"/>
  <g>
    <defs id="defs1">
      <linearGradient x1="22" gradientUnits="userSpaceOnUse" x2="210" y1="292.5" y2="332.5" id="linearGradient1" spreadMethod="reflect">
        <stop stop-opacity="1" stop-color="rgb(0,153,204)" offset="0%"/>
        <stop stop-opacity="1" stop-color="rgb(0,153,204)" offset="100%"/>
      </linearGradient>
      <linearGradient x1="365" gradientUnits="userSpaceOnUse" x2="585.5" y1="292.5" y2="332.5" id="linearGradient2" spreadMethod="reflect">
        <stop stop-opacity="1" stop-color="rgb(0,153,204)" offset="0%"/>
        <stop stop-opacity="1" stop-color="rgb(0,153,204)" offset="100%"/>
      </linearGradient>
      <linearGradient x1="365" gradientUnits="userSpaceOnUse" x2="445" y1="349.5" y2="389.5" id="linearGradient3" spreadMethod="reflect">
        <stop stop-opacity="1" stop-color="rgb(0,153,204)" offset="0%"/>
        <stop stop-opacity="1" stop-color="rgb(0,153,204)" offset="100%"/>
      </linearGradient>
      <linearGradient x1="477.5833" gradientUnits="userSpaceOnUse" x2="600.9167" y1="419.5" y2="459.5" id="linearGradient4" spreadMethod="reflect">
        <stop stop-opacity="1" stop-color="rgb(0,153,204)" offset="0%"/>
        <stop stop-opacity="1" stop-color="rgb(0,153,204)" offset="100%"/>
      </linearGradient>
      <linearGradient x1="449.6667" gradientUnits="userSpaceOnUse" x2="628.8333" y1="489.5" y2="529.5" id="linearGradient5" spreadMethod="reflect">
        <stop stop-opacity="1" stop-color="rgb(0,153,204)" offset="0%"/>
        <stop stop-opacity="1" stop-color="rgb(0,153,204)" offset="100%"/>
      </linearGradient>
      <clipPath clipPathUnits="userSpaceOnUse" id="clipPath1">
        <path d="M0 0 L674 0 L674 406 L0 406 L0 0 Z"/>
      </clipPath>
      <clipPath clipPathUnits="userSpaceOnUse" id="clipPath2">
        <path d="M7 228 L681 228 L681 634 L7 634 L7 228 Z"/>
      </clipPath>
    </defs>
    <g fill="url(#linearGradient1)" text-rendering="geometricPrecision" shape-rendering="geometricPrecision" transform="matrix(1,0,0,1,-7,-228)" stroke="url(#linearGradient1)">
      <path d="M22 292.5 L210 292.5 L210 332.5 L22 332.5 Z" stroke="none" clip-path="url(#clipPath2)"/>
    </g>
    <g stroke-linecap="butt" transform="matrix(1,0,0,1,-7,-228)" fill="rgb(51,102,255)" text-rendering="geometricPrecision" shape-rendering="geometricPrecision" stroke="rgb(51,102,255)" stroke-miterlimit="1.45">
      <path fill="none" d="M22 292.5 L210 292.5 L210 332.5 L22 332.5 Z" clip-path="url(#clipPath2)"/>
      <text x="26.0099" y="316.7637" clip-path="url(#clipPath2)" fill="black" font-family="sans-serif" stroke="none" xml:space="preserve">把二进制的 110 转换为十进制：</text>
    </g>
    <g text-rendering="geometricPrecision" stroke-miterlimit="1.45" shape-rendering="geometricPrecision" font-family="sans-serif" transform="matrix(1,0,0,1,-7,-228)" stroke-linecap="butt">
      <text x="156.7257" xml:space="preserve" y="362.7637" clip-path="url(#clipPath2)" stroke="none">1     1     0</text>
    </g>
    <g text-rendering="geometricPrecision" stroke-miterlimit="1.45" shape-rendering="geometricPrecision" font-family="sans-serif" transform="matrix(1,0,0,1,-7,-228)" stroke-linecap="butt">
      <text x="113.5494" xml:space="preserve" y="386.7637" clip-path="url(#clipPath2)" stroke="none">1 x 2^2  1 x 2^1  0 x 2^0</text>
    </g>
    <g text-rendering="geometricPrecision" stroke-miterlimit="1.45" shape-rendering="geometricPrecision" font-family="sans-serif" transform="matrix(1,0,0,1,-7,-228)" stroke-linecap="butt">
      <text x="163.9218" xml:space="preserve" y="459.6879" clip-path="url(#clipPath2)" stroke="none">0 x 2^0 = 0</text>
      <text x="163.9218" xml:space="preserve" y="474.7637" clip-path="url(#clipPath2)" stroke="none">1 x 2^1 = 2</text>
      <text x="163.9218" xml:space="preserve" y="489.8394" clip-path="url(#clipPath2)" stroke="none">1 x 2^2 = 4</text>
    </g>
    <g text-rendering="geometricPrecision" stroke-miterlimit="1.45" shape-rendering="geometricPrecision" font-family="sans-serif" transform="matrix(1,0,0,1,-7,-228)" stroke-linecap="butt">
      <text x="156.7257" xml:space="preserve" y="544.7637" clip-path="url(#clipPath2)" stroke="none">0 + 2 + 4 = 6</text>
    </g>
    <g fill="url(#linearGradient2)" text-rendering="geometricPrecision" shape-rendering="geometricPrecision" transform="matrix(1,0,0,1,-7,-228)" stroke="url(#linearGradient2)">
      <path d="M365 292.5 L585.5 292.5 L585.5 332.5 L365 332.5 Z" stroke="none" clip-path="url(#clipPath2)"/>
    </g>
    <g stroke-linecap="butt" transform="matrix(1,0,0,1,-7,-228)" fill="rgb(51,102,255)" text-rendering="geometricPrecision" shape-rendering="geometricPrecision" stroke="rgb(51,102,255)" stroke-miterlimit="1.45">
      <path fill="none" d="M365 292.5 L585.5 292.5 L585.5 332.5 L365 332.5 Z" clip-path="url(#clipPath2)"/>
      <text x="367.2698" y="316.7637" clip-path="url(#clipPath2)" fill="black" font-family="sans-serif" stroke="none" xml:space="preserve">把二进制的 11111001 转换为十进制：</text>
    </g>
    <g fill="url(#linearGradient3)" text-rendering="geometricPrecision" shape-rendering="geometricPrecision" transform="matrix(1,0,0,1,-7,-228)" stroke="url(#linearGradient3)">
      <path d="M365 349.5 L445 349.5 L445 389.5 L365 389.5 Z" stroke="none" clip-path="url(#clipPath2)"/>
    </g>
    <g stroke-linecap="butt" transform="matrix(1,0,0,1,-7,-228)" fill="rgb(51,102,255)" text-rendering="geometricPrecision" shape-rendering="geometricPrecision" stroke="rgb(51,102,255)" stroke-miterlimit="1.45">
      <path fill="none" d="M365 349.5 L445 349.5 L445 389.5 L365 389.5 Z" clip-path="url(#clipPath2)"/>
      <text x="387" y="373.7637" clip-path="url(#clipPath2)" fill="black" font-family="sans-serif" stroke="none" xml:space="preserve">取反：</text>
    </g>
    <g text-rendering="geometricPrecision" stroke-miterlimit="1.45" shape-rendering="geometricPrecision" font-family="sans-serif" transform="matrix(1,0,0,1,-7,-228)" stroke-linecap="butt">
      <text x="510.4658" xml:space="preserve" y="362.7637" clip-path="url(#clipPath2)" stroke="none">11111001</text>
    </g>
    <g stroke-linecap="butt" transform="matrix(1,0,0,1,-7,-228)" fill="rgb(51,153,102)" text-rendering="geometricPrecision" shape-rendering="geometricPrecision" stroke="rgb(51,153,102)" stroke-miterlimit="1.45">
      <path fill="none" d="M499.25 371.5 L579.25 371.5 L579.25 389.5 L499.25 389.5 Z" clip-path="url(#clipPath2)"/>
      <text x="510.4658" y="384.7637" clip-path="url(#clipPath2)" fill="black" font-family="sans-serif" stroke="none" xml:space="preserve">00000110</text>
    </g>
    <g fill="url(#linearGradient4)" text-rendering="geometricPrecision" shape-rendering="geometricPrecision" transform="matrix(1,0,0,1,-7,-228)" stroke="url(#linearGradient4)">
      <path d="M477.5833 419.5 L600.9167 419.5 L600.9167 459.5 L477.5833 459.5 Z" stroke="none" clip-path="url(#clipPath2)"/>
    </g>
    <g stroke-linecap="butt" transform="matrix(1,0,0,1,-7,-228)" fill="rgb(51,102,255)" text-rendering="geometricPrecision" shape-rendering="geometricPrecision" stroke="rgb(51,102,255)" stroke-miterlimit="1.45">
      <path fill="none" d="M477.5833 419.5 L600.9167 419.5 L600.9167 459.5 L477.5833 459.5 Z" clip-path="url(#clipPath2)"/>
      <text x="487.652" y="443.7637" clip-path="url(#clipPath2)" fill="black" font-family="sans-serif" stroke="none" xml:space="preserve">对应的十进制为：6</text>
    </g>
    <g fill="url(#linearGradient5)" text-rendering="geometricPrecision" shape-rendering="geometricPrecision" transform="matrix(1,0,0,1,-7,-228)" stroke="url(#linearGradient5)">
      <path d="M449.6667 489.5 L628.8333 489.5 L628.8333 529.5 L449.6667 529.5 Z" stroke="none" clip-path="url(#clipPath2)"/>
    </g>
    <g stroke-linecap="butt" transform="matrix(1,0,0,1,-7,-228)" fill="rgb(51,102,255)" text-rendering="geometricPrecision" shape-rendering="geometricPrecision" stroke="rgb(51,102,255)" stroke-miterlimit="1.45">
      <path fill="none" d="M449.6667 489.5 L628.8333 489.5 L628.8333 529.5 L449.6667 529.5 Z" clip-path="url(#clipPath2)"/>
      <text x="451.6718" y="513.7637" clip-path="url(#clipPath2)" fill="black" font-family="sans-serif" stroke="none" xml:space="preserve">11111001 对应的十进制为：-6</text>
    </g>
    <g text-rendering="geometricPrecision" stroke-miterlimit="1.45" shape-rendering="geometricPrecision" transform="matrix(1,0,0,1,-7,-228)" stroke-linecap="butt">
      <path fill="none" d="M133.0077 369.5 L274.0103 369.5" clip-path="url(#clipPath2)"/>
    </g>
    <g stroke-linecap="butt" transform="matrix(1,0,0,1,-7,-228)" fill="rgb(51,153,102)" text-rendering="geometricPrecision" shape-rendering="geometricPrecision" stroke="rgb(51,153,102)" stroke-miterlimit="1.45">
      <path fill="none" d="M203.5 402.5098 L203.5 442.4814" clip-path="url(#clipPath2)"/>
      <path d="M203.5 450.4814 L208.5 438.4814 L203.5 441.4814 L198.5 438.4814 Z" clip-path="url(#clipPath2)" stroke="none"/>
      <path fill="none" d="M203.5 490.4951 L203.5 512.5273" clip-path="url(#clipPath2)"/>
      <path d="M203.5 520.5273 L208.5 508.5273 L203.5 511.5273 L198.5 508.5273 Z" clip-path="url(#clipPath2)" stroke="none"/>
      <path fill="none" d="M314 283.4969 L314 578.4662" clip-path="url(#clipPath2)" stroke="red"/>
      <path fill="none" d="M445.0037 369.5 L480.828 369.5" clip-path="url(#clipPath2)"/>
      <path d="M488.828 369.5 L476.828 364.5 L479.828 369.5 L476.828 374.5 Z" clip-path="url(#clipPath2)" stroke="none"/>
      <path fill="none" d="M492.9867 369.5 L585.4807 369.5" clip-path="url(#clipPath2)" stroke="black"/>
      <path fill="none" d="M539.25 389.5171 L539.25 411.5361" clip-path="url(#clipPath2)"/>
      <path d="M539.25 419.5361 L544.25 407.5361 L539.25 410.5361 L534.25 407.5361 Z" clip-path="url(#clipPath2)" stroke="none"/>
      <path fill="none" d="M539.25 459.4951 L539.25 481.5273" clip-path="url(#clipPath2)"/>
      <path d="M539.25 489.5273 L544.25 477.5273 L539.25 480.5273 L534.25 477.5273 Z" clip-path="url(#clipPath2)" stroke="none"/>
    </g>
  </g>
</svg>
