<?xml version="1.0" encoding="UTF-8"?><svg xmlns="http://www.w3.org/2000/svg" xmlns:xlink="http://www.w3.org/1999/xlink" fill-opacity="1" color-rendering="auto" color-interpolation="auto" text-rendering="auto" stroke="black" stroke-linecap="square" width="459" stroke-miterlimit="10" shape-rendering="auto" stroke-opacity="1" fill="black" stroke-dasharray="none" font-weight="normal" stroke-width="1" height="350" font-family="'Dialog'" font-style="normal" stroke-linejoin="miter" font-size="12px" stroke-dashoffset="0" image-rendering="auto">
  <!--Generated by ySVG 2.5-->
  <defs id="genericDefs"/>
  <g>
    <defs id="defs1">
      <linearGradient x1="84" gradientUnits="userSpaceOnUse" x2="320" y1="225" y2="265" id="linearGradient1" spreadMethod="reflect">
        <stop stop-opacity="1" stop-color="rgb(0,153,204)" offset="0%"/>
        <stop stop-opacity="1" stop-color="rgb(0,153,204)" offset="100%"/>
      </linearGradient>
      <clipPath clipPathUnits="userSpaceOnUse" id="clipPath1">
        <path d="M0 0 L459 0 L459 350 L0 350 L0 0 Z"/>
      </clipPath>
      <clipPath clipPathUnits="userSpaceOnUse" id="clipPath2">
        <path d="M69 210 L528 210 L528 560 L69 560 L69 210 Z"/>
      </clipPath>
    </defs>
    <g fill="url(#linearGradient1)" text-rendering="geometricPrecision" shape-rendering="geometricPrecision" transform="matrix(1,0,0,1,-69,-210)" stroke="url(#linearGradient1)">
      <path d="M84 225 L320 225 L320 265 L84 265 Z" stroke="none" clip-path="url(#clipPath2)"/>
    </g>
    <g stroke-linecap="butt" transform="matrix(1,0,0,1,-69,-210)" fill="rgb(51,102,255)" text-rendering="geometricPrecision" shape-rendering="geometricPrecision" stroke="rgb(51,102,255)" stroke-miterlimit="1.45">
      <path fill="none" d="M84 225 L320 225 L320 265 L84 265 Z" clip-path="url(#clipPath2)"/>
      <text x="86.8138" y="249.2637" clip-path="url(#clipPath2)" fill="black" font-family="sans-serif" stroke="none" xml:space="preserve">将二进制小数 0.110 转换为十进制小数：</text>
    </g>
    <g text-rendering="geometricPrecision" stroke-miterlimit="1.45" shape-rendering="geometricPrecision" font-family="sans-serif" transform="matrix(1,0,0,1,-69,-210)" stroke-linecap="butt">
      <text x="205.1573" xml:space="preserve" y="308.2637" clip-path="url(#clipPath2)" stroke="none">0.        1        1        0</text>
    </g>
    <g text-rendering="geometricPrecision" stroke-miterlimit="1.45" shape-rendering="geometricPrecision" font-family="sans-serif" transform="matrix(1,0,0,1,-69,-210)" stroke-linecap="butt">
      <text x="185.3138" xml:space="preserve" y="330.2637" clip-path="url(#clipPath2)" stroke="none">0 x 2^0</text>
    </g>
    <g text-rendering="geometricPrecision" stroke-miterlimit="1.45" shape-rendering="geometricPrecision" font-family="sans-serif" transform="matrix(1,0,0,1,-69,-210)" stroke-linecap="butt">
      <text x="251.7158" xml:space="preserve" y="330.2637" clip-path="url(#clipPath2)" stroke="none">1 x 2^-1</text>
    </g>
    <g text-rendering="geometricPrecision" stroke-miterlimit="1.45" shape-rendering="geometricPrecision" font-family="sans-serif" transform="matrix(1,0,0,1,-69,-210)" stroke-linecap="butt">
      <text x="322.2158" xml:space="preserve" y="330.2637" clip-path="url(#clipPath2)" stroke="none">1 x 2^-2</text>
    </g>
    <g text-rendering="geometricPrecision" stroke-miterlimit="1.45" shape-rendering="geometricPrecision" font-family="sans-serif" transform="matrix(1,0,0,1,-69,-210)" stroke-linecap="butt">
      <text x="389.2158" xml:space="preserve" y="330.2637" clip-path="url(#clipPath2)" stroke="none">0 x 2^-3</text>
    </g>
    <g stroke-linecap="butt" transform="matrix(1,0,0,1,-69,-210)" fill="rgb(51,153,102)" text-rendering="geometricPrecision" shape-rendering="geometricPrecision" stroke="rgb(51,153,102)" stroke-miterlimit="1.45">
      <path fill="none" d="M214.5 387 L346.5 387 L346.5 475 L214.5 475 Z" clip-path="url(#clipPath2)"/>
      <text x="226.5297" y="412.6501" clip-path="url(#clipPath2)" fill="black" font-family="sans-serif" stroke="none" xml:space="preserve">0 x 2^0  = 0</text>
      <text x="226.5297" y="427.7258" clip-path="url(#clipPath2)" fill="black" font-family="sans-serif" stroke="none" xml:space="preserve">1 x 2^-1 = 0.5</text>
      <text x="226.5297" y="442.8015" clip-path="url(#clipPath2)" fill="black" font-family="sans-serif" stroke="none" xml:space="preserve">1 x 2^-2 = 0.25</text>
      <text x="226.5297" y="457.8772" clip-path="url(#clipPath2)" fill="black" font-family="sans-serif" stroke="none" xml:space="preserve">0 x 2^-3 =0</text>
    </g>
    <g stroke-linecap="butt" transform="matrix(1,0,0,1,-69,-210)" fill="rgb(51,153,102)" text-rendering="geometricPrecision" shape-rendering="geometricPrecision" stroke="rgb(51,153,102)" stroke-miterlimit="1.45">
      <path fill="none" d="M187.5 505 L373.5 505 L373.5 545 L187.5 545 Z" clip-path="url(#clipPath2)"/>
      <text x="190.5494" y="529.2637" clip-path="url(#clipPath2)" fill="black" font-family="sans-serif" stroke="none" xml:space="preserve">0 + 0.5 + 0.25 + 0 = 0.75</text>
    </g>
    <g text-rendering="geometricPrecision" stroke-miterlimit="1.45" shape-rendering="geometricPrecision" transform="matrix(1,0,0,1,-69,-210)" stroke-linecap="butt">
      <path fill="none" d="M193.032 315 L432.9802 315" clip-path="url(#clipPath2)"/>
    </g>
    <g stroke-linecap="butt" transform="matrix(1,0,0,1,-69,-210)" fill="rgb(51,153,102)" text-rendering="geometricPrecision" shape-rendering="geometricPrecision" stroke="rgb(51,153,102)" stroke-miterlimit="1.45">
      <path fill="none" d="M280.5 334.9978 L280.5 378.9834" clip-path="url(#clipPath2)"/>
      <path d="M280.5 386.9834 L285.5 374.9834 L280.5 377.9834 L275.5 374.9834 Z" clip-path="url(#clipPath2)" stroke="none"/>
      <path fill="none" d="M280.5 475.0166 L280.5 497.0359" clip-path="url(#clipPath2)"/>
      <path d="M280.5 505.0359 L285.5 493.0359 L280.5 496.0359 L275.5 493.0359 Z" clip-path="url(#clipPath2)" stroke="none"/>
    </g>
  </g>
</svg>
