<?xml version="1.0" encoding="UTF-8"?><svg xmlns="http://www.w3.org/2000/svg" xmlns:xlink="http://www.w3.org/1999/xlink" fill-opacity="1" color-rendering="auto" color-interpolation="auto" text-rendering="auto" stroke="black" stroke-linecap="square" width="479" stroke-miterlimit="10" shape-rendering="auto" stroke-opacity="1" fill="black" stroke-dasharray="none" font-weight="normal" stroke-width="1" height="483" font-family="'Dialog'" font-style="normal" stroke-linejoin="miter" font-size="12px" stroke-dashoffset="0" image-rendering="auto">
  <!--Generated by ySVG 2.5-->
  <defs id="genericDefs"/>
  <g>
    <defs id="defs1">
      <linearGradient x1="238" gradientUnits="userSpaceOnUse" x2="516" y1="484" y2="524" id="linearGradient1" spreadMethod="reflect">
        <stop stop-opacity="1" stop-color="rgb(153,204,0)" offset="0%"/>
        <stop stop-opacity="1" stop-color="yellow" offset="100%"/>
      </linearGradient>
      <linearGradient x1="223" gradientUnits="userSpaceOnUse" x2="531" y1="575" y2="615" id="linearGradient2" spreadMethod="reflect">
        <stop stop-opacity="1" stop-color="rgb(153,204,0)" offset="0%"/>
        <stop stop-opacity="1" stop-color="yellow" offset="100%"/>
      </linearGradient>
      <clipPath clipPathUnits="userSpaceOnUse" id="clipPath1">
        <path d="M0 0 L479 0 L479 483 L0 483 L0 0 Z"/>
      </clipPath>
      <clipPath clipPathUnits="userSpaceOnUse" id="clipPath2">
        <path d="M207 148 L686 148 L686 631 L207 631 L207 148 Z"/>
      </clipPath>
    </defs>
    <g stroke-linecap="butt" font-size="30px" transform="matrix(1,0,0,1,-207,-148)" fill="green" text-rendering="geometricPrecision" font-family="'Source Code Pro'" shape-rendering="geometricPrecision" stroke="green" stroke-miterlimit="1.45">
      <text x="259.5007" xml:space="preserve" y="257.1646" clip-path="url(#clipPath2)" stroke="none">42</text>
    </g>
    <g stroke-linecap="butt" font-size="30px" transform="matrix(1,0,0,1,-207,-148)" fill="rgb(153,51,0)" text-rendering="geometricPrecision" font-family="'Source Code Pro'" shape-rendering="geometricPrecision" stroke="rgb(153,51,0)" stroke-miterlimit="1.45">
      <text x="230.0004" xml:space="preserve" y="257.1646" clip-path="url(#clipPath2)" stroke="none">2</text>
    </g>
    <g stroke-linecap="butt" font-size="30px" transform="matrix(1,0,0,1,-207,-148)" fill="fuchsia" text-rendering="geometricPrecision" font-family="'Source Code Pro'" shape-rendering="geometricPrecision" stroke="fuchsia" stroke-miterlimit="1.45">
      <text x="506.0004" xml:space="preserve" y="257.1646" clip-path="url(#clipPath2)" stroke="none">0</text>
    </g>
    <g stroke-linecap="butt" font-size="30px" transform="matrix(1,0,0,1,-207,-148)" fill="green" text-rendering="geometricPrecision" font-family="'Source Code Pro'" shape-rendering="geometricPrecision" stroke="green" stroke-miterlimit="1.45">
      <text x="283.0007" xml:space="preserve" y="288.1646" clip-path="url(#clipPath2)" stroke="none">21</text>
    </g>
    <g stroke-linecap="butt" font-size="30px" transform="matrix(1,0,0,1,-207,-148)" fill="green" text-rendering="geometricPrecision" font-family="'Source Code Pro'" shape-rendering="geometricPrecision" stroke="green" stroke-miterlimit="1.45">
      <text x="304.5007" xml:space="preserve" y="319.1646" clip-path="url(#clipPath2)" stroke="none">10</text>
    </g>
    <g stroke-linecap="butt" font-size="30px" transform="matrix(1,0,0,1,-207,-148)" fill="green" text-rendering="geometricPrecision" font-family="'Source Code Pro'" shape-rendering="geometricPrecision" stroke="green" stroke-miterlimit="1.45">
      <text x="337.0004" xml:space="preserve" y="350.1646" clip-path="url(#clipPath2)" stroke="none">5</text>
    </g>
    <g stroke-linecap="butt" font-size="30px" transform="matrix(1,0,0,1,-207,-148)" fill="green" text-rendering="geometricPrecision" font-family="'Source Code Pro'" shape-rendering="geometricPrecision" stroke="green" stroke-miterlimit="1.45">
      <text x="358.5004" xml:space="preserve" y="381.1646" clip-path="url(#clipPath2)" stroke="none">2</text>
    </g>
    <g stroke-linecap="butt" font-size="30px" transform="matrix(1,0,0,1,-207,-148)" fill="green" text-rendering="geometricPrecision" font-family="'Source Code Pro'" shape-rendering="geometricPrecision" stroke="green" stroke-miterlimit="1.45">
      <text x="382.0004" xml:space="preserve" y="412.1646" clip-path="url(#clipPath2)" stroke="none">1</text>
    </g>
    <g stroke-linecap="butt" font-size="30px" transform="matrix(1,0,0,1,-207,-148)" fill="rgb(153,51,0)" text-rendering="geometricPrecision" font-family="'Source Code Pro'" shape-rendering="geometricPrecision" stroke="rgb(153,51,0)" stroke-miterlimit="1.45">
      <text x="253.5004" xml:space="preserve" y="288.1646" clip-path="url(#clipPath2)" stroke="none">2</text>
    </g>
    <g stroke-linecap="butt" font-size="30px" transform="matrix(1,0,0,1,-207,-148)" fill="rgb(153,51,0)" text-rendering="geometricPrecision" font-family="'Source Code Pro'" shape-rendering="geometricPrecision" stroke="rgb(153,51,0)" stroke-miterlimit="1.45">
      <text x="275.0004" xml:space="preserve" y="319.1646" clip-path="url(#clipPath2)" stroke="none">2</text>
    </g>
    <g stroke-linecap="butt" font-size="30px" transform="matrix(1,0,0,1,-207,-148)" fill="rgb(153,51,0)" text-rendering="geometricPrecision" font-family="'Source Code Pro'" shape-rendering="geometricPrecision" stroke="rgb(153,51,0)" stroke-miterlimit="1.45">
      <text x="298.5004" xml:space="preserve" y="350.1646" clip-path="url(#clipPath2)" stroke="none">2</text>
    </g>
    <g stroke-linecap="butt" font-size="30px" transform="matrix(1,0,0,1,-207,-148)" fill="rgb(153,51,0)" text-rendering="geometricPrecision" font-family="'Source Code Pro'" shape-rendering="geometricPrecision" stroke="rgb(153,51,0)" stroke-miterlimit="1.45">
      <text x="320.0004" xml:space="preserve" y="381.1646" clip-path="url(#clipPath2)" stroke="none">2</text>
    </g>
    <g stroke-linecap="butt" font-size="30px" transform="matrix(1,0,0,1,-207,-148)" fill="rgb(153,51,0)" text-rendering="geometricPrecision" font-family="'Source Code Pro'" shape-rendering="geometricPrecision" stroke="rgb(153,51,0)" stroke-miterlimit="1.45">
      <text x="343.5004" xml:space="preserve" y="412.1646" clip-path="url(#clipPath2)" stroke="none">2</text>
    </g>
    <g stroke-linecap="butt" font-size="30px" transform="matrix(1,0,0,1,-207,-148)" fill="fuchsia" text-rendering="geometricPrecision" font-family="'Source Code Pro'" shape-rendering="geometricPrecision" stroke="fuchsia" stroke-miterlimit="1.45">
      <text x="506.0004" xml:space="preserve" y="288.1646" clip-path="url(#clipPath2)" stroke="none">1</text>
    </g>
    <g stroke-linecap="butt" font-size="30px" transform="matrix(1,0,0,1,-207,-148)" fill="fuchsia" text-rendering="geometricPrecision" font-family="'Source Code Pro'" shape-rendering="geometricPrecision" stroke="fuchsia" stroke-miterlimit="1.45">
      <text x="506.0004" xml:space="preserve" y="319.1646" clip-path="url(#clipPath2)" stroke="none">0</text>
    </g>
    <g stroke-linecap="butt" font-size="30px" transform="matrix(1,0,0,1,-207,-148)" fill="fuchsia" text-rendering="geometricPrecision" font-family="'Source Code Pro'" shape-rendering="geometricPrecision" stroke="fuchsia" stroke-miterlimit="1.45">
      <text x="506.0004" xml:space="preserve" y="350.1646" clip-path="url(#clipPath2)" stroke="none">1</text>
    </g>
    <g stroke-linecap="butt" font-size="30px" transform="matrix(1,0,0,1,-207,-148)" fill="fuchsia" text-rendering="geometricPrecision" font-family="'Source Code Pro'" shape-rendering="geometricPrecision" stroke="fuchsia" stroke-miterlimit="1.45">
      <text x="506.0004" xml:space="preserve" y="381.1646" clip-path="url(#clipPath2)" stroke="none">0</text>
    </g>
    <g stroke-linecap="butt" font-size="30px" transform="matrix(1,0,0,1,-207,-148)" fill="fuchsia" text-rendering="geometricPrecision" font-family="'Source Code Pro'" shape-rendering="geometricPrecision" stroke="fuchsia" stroke-miterlimit="1.45">
      <text x="506.0004" xml:space="preserve" y="412.1646" clip-path="url(#clipPath2)" stroke="none">1</text>
    </g>
    <g fill="rgb(255,255,153)" text-rendering="geometricPrecision" shape-rendering="geometricPrecision" transform="matrix(1,0,0,1,-207,-148)" stroke="rgb(255,255,153)">
      <path d="M300 169 L346 169 L346 184 L361 184 L361 200 L300 200 Z" stroke="none" clip-path="url(#clipPath2)"/>
    </g>
    <g fill="white" text-rendering="geometricPrecision" shape-rendering="geometricPrecision" transform="matrix(1,0,0,1,-207,-148)" stroke="white">
      <path d="M346 169 L346 184 L361 184 Z" fill-rule="evenodd" clip-path="url(#clipPath2)" stroke="none"/>
    </g>
    <g stroke-linecap="butt" transform="matrix(1,0,0,1,-207,-148)" fill="rgb(255,153,0)" text-rendering="geometricPrecision" shape-rendering="geometricPrecision" stroke-dasharray="6,2" stroke="rgb(255,153,0)" stroke-miterlimit="1.45">
      <path fill="none" d="M300 169 L346 169 L346 184 L361 184 L361 200 L300 200 Z" clip-path="url(#clipPath2)"/>
      <path fill="none" d="M346 169 L346 184 L361 184 Z" clip-path="url(#clipPath2)" fill-rule="evenodd"/>
    </g>
    <g font-size="30px" stroke-linecap="butt" transform="matrix(1,0,0,1,-207,-148)" text-rendering="geometricPrecision" font-family="sans-serif" shape-rendering="geometricPrecision" stroke-miterlimit="1.45">
      <text x="315.5" xml:space="preserve" y="195.1646" clip-path="url(#clipPath2)" stroke="none">商</text>
    </g>
    <g stroke-linecap="butt" transform="matrix(1,0,0,1,-207,-148)" fill="rgb(51,102,255)" text-rendering="geometricPrecision" shape-rendering="geometricPrecision" stroke="rgb(51,102,255)" stroke-miterlimit="1.45">
      <path fill="none" d="M499 231 L531 231 L531 417 L499 417 Z" clip-path="url(#clipPath2)"/>
    </g>
    <g stroke-linecap="butt" transform="matrix(1,0,0,1,-207,-148)" fill="rgb(51,102,255)" text-rendering="geometricPrecision" shape-rendering="geometricPrecision" stroke="rgb(51,102,255)" stroke-miterlimit="1.45">
      <path fill="none" d="M255 230 L300 230 L300 261 L255 261 Z" clip-path="url(#clipPath2)"/>
    </g>
    <g fill="rgb(255,255,153)" text-rendering="geometricPrecision" shape-rendering="geometricPrecision" transform="matrix(1,0,0,1,-207,-148)" stroke="rgb(255,255,153)">
      <path d="M571.5 169 L655.5 169 L655.5 184 L670.5 184 L670.5 200 L571.5 200 Z" stroke="none" clip-path="url(#clipPath2)"/>
      <path fill="white" d="M655.5 169 L655.5 184 L670.5 184 Z" clip-path="url(#clipPath2)" fill-rule="evenodd" stroke="none"/>
    </g>
    <g stroke-linecap="butt" transform="matrix(1,0,0,1,-207,-148)" fill="rgb(255,153,0)" text-rendering="geometricPrecision" shape-rendering="geometricPrecision" stroke-dasharray="6,2" stroke="rgb(255,153,0)" stroke-miterlimit="1.45">
      <path fill="none" d="M571.5 169 L655.5 169 L655.5 184 L670.5 184 L670.5 200 L571.5 200 Z" clip-path="url(#clipPath2)"/>
      <path fill="none" d="M655.5 169 L655.5 184 L670.5 184 Z" clip-path="url(#clipPath2)" fill-rule="evenodd"/>
    </g>
    <g font-size="30px" stroke-linecap="butt" transform="matrix(1,0,0,1,-207,-148)" text-rendering="geometricPrecision" font-family="sans-serif" shape-rendering="geometricPrecision" stroke-miterlimit="1.45">
      <text x="591" xml:space="preserve" y="195.1646" clip-path="url(#clipPath2)" stroke="none">余数</text>
    </g>
    <g fill="url(#linearGradient1)" text-rendering="geometricPrecision" shape-rendering="geometricPrecision" transform="matrix(1,0,0,1,-207,-148)" stroke="url(#linearGradient1)">
      <path d="M238 484 L516 484 L516 524 L238 524 Z" stroke="none" clip-path="url(#clipPath2)"/>
    </g>
    <g stroke-linecap="butt" transform="matrix(1,0,0,1,-207,-148)" fill="rgb(153,204,0)" text-rendering="geometricPrecision" shape-rendering="geometricPrecision" stroke="rgb(153,204,0)" stroke-miterlimit="1.45">
      <path fill="none" d="M238 484 L516 484 L516 524 L238 524 Z" clip-path="url(#clipPath2)"/>
    </g>
    <g font-size="30px" stroke-linecap="butt" transform="matrix(1,0,0,1,-207,-148)" text-rendering="geometricPrecision" font-family="sans-serif" shape-rendering="geometricPrecision" stroke-miterlimit="1.45">
      <text x="248.0022" xml:space="preserve" y="514.6646" clip-path="url(#clipPath2)" stroke="none">倒序排列：101010</text>
    </g>
    <g fill="url(#linearGradient2)" text-rendering="geometricPrecision" shape-rendering="geometricPrecision" transform="matrix(1,0,0,1,-207,-148)" stroke="url(#linearGradient2)">
      <path d="M223 575 L531 575 L531 615 L223 615 Z" stroke="none" clip-path="url(#clipPath2)"/>
    </g>
    <g stroke-linecap="butt" transform="matrix(1,0,0,1,-207,-148)" fill="rgb(153,204,0)" text-rendering="geometricPrecision" shape-rendering="geometricPrecision" stroke="rgb(153,204,0)" stroke-miterlimit="1.45">
      <path fill="none" d="M223 575 L531 575 L531 615 L223 615 Z" clip-path="url(#clipPath2)"/>
    </g>
    <g font-size="30px" stroke-linecap="butt" transform="matrix(1,0,0,1,-207,-148)" text-rendering="geometricPrecision" font-family="sans-serif" shape-rendering="geometricPrecision" stroke-miterlimit="1.45">
      <text x="230.0029" xml:space="preserve" y="605.6646" clip-path="url(#clipPath2)" stroke="none">高位补零：00101010</text>
    </g>
    <g text-rendering="geometricPrecision" stroke-miterlimit="1.45" shape-rendering="geometricPrecision" transform="matrix(1,0,0,1,-207,-148)" stroke-linecap="butt">
      <path fill="none" d="M254.5 230.9678 L254.5 262.5 L300.0215 262.5" clip-path="url(#clipPath2)"/>
      <path fill="none" stroke-dasharray="6,2" d="M300.0266 246.5 L491.0187 246.5" clip-path="url(#clipPath2)" stroke="rgb(255,153,0)"/>
      <path fill="rgb(255,153,0)" stroke-dasharray="6,2" d="M499.0187 246.5 L487.0187 241.5 L490.0187 246.5 L487.0187 251.5 Z" clip-path="url(#clipPath2)" stroke="none"/>
      <path fill="none" d="M277.5 261.9678 L277.5 293.5 L323.49 293.5" clip-path="url(#clipPath2)"/>
      <path fill="none" d="M301 292.9678 L301 324.5 L344.9978 324.5" clip-path="url(#clipPath2)"/>
      <path fill="none" d="M322.5 323.9678 L322.5 355.5 L368.49 355.5" clip-path="url(#clipPath2)"/>
      <path fill="none" d="M346 354.9678 L346 386.5 L389.9978 386.5" clip-path="url(#clipPath2)"/>
      <path fill="none" d="M367.5 385.9678 L367.5 417.5 L413.49 417.5" clip-path="url(#clipPath2)"/>
      <path fill="none" stroke-dasharray="6,2" d="M323.4919 277.5 L490.9631 277.5" clip-path="url(#clipPath2)" stroke="rgb(255,153,0)"/>
      <path fill="rgb(255,153,0)" stroke-dasharray="6,2" d="M498.9631 277.5 L486.9631 272.5 L489.9631 277.5 L486.9631 282.5 Z" clip-path="url(#clipPath2)" stroke="none"/>
      <path fill="none" stroke-dasharray="6,2" d="M345.0116 308.5 L491.0221 308.5" clip-path="url(#clipPath2)" stroke="rgb(255,153,0)"/>
      <path fill="rgb(255,153,0)" stroke-dasharray="6,2" d="M499.0221 308.5 L487.0221 303.5 L490.0221 308.5 L487.0221 313.5 Z" clip-path="url(#clipPath2)" stroke="none"/>
      <path fill="none" stroke-dasharray="6,2" d="M368.4866 339.5 L491.0109 339.5" clip-path="url(#clipPath2)" stroke="rgb(255,153,0)"/>
      <path fill="rgb(255,153,0)" stroke-dasharray="6,2" d="M499.0109 339.5 L487.0109 334.5 L490.0109 339.5 L487.0109 344.5 Z" clip-path="url(#clipPath2)" stroke="none"/>
      <path fill="none" stroke-dasharray="6,2" d="M390.0067 370.5 L490.9791 370.5" clip-path="url(#clipPath2)" stroke="rgb(255,153,0)"/>
      <path fill="rgb(255,153,0)" stroke-dasharray="6,2" d="M498.9791 370.5 L486.9791 365.5 L489.9791 370.5 L486.9791 375.5 Z" clip-path="url(#clipPath2)" stroke="none"/>
      <path fill="none" stroke-dasharray="6,2" d="M413.4932 401.5 L490.9909 401.5" clip-path="url(#clipPath2)" stroke="rgb(255,153,0)"/>
      <path fill="rgb(255,153,0)" stroke-dasharray="6,2" d="M498.9909 401.5 L486.9909 396.5 L489.9909 401.5 L486.9909 406.5 Z" clip-path="url(#clipPath2)" stroke="none"/>
      <path fill="none" stroke-dasharray="6,2" d="M290.7759 230.9697 L312.0539 206.0784" clip-path="url(#clipPath2)" stroke="rgb(255,153,0)"/>
      <path fill="rgb(255,153,0)" stroke-dasharray="6,2" d="M317.2522 199.9975 L305.6542 205.87 L311.4041 206.8386 L313.2554 212.3678 Z" clip-path="url(#clipPath2)" stroke="none"/>
      <path fill="none" stroke-dasharray="6,2" d="M531.0419 232.6564 L585.0005 203.7713" clip-path="url(#clipPath2)" stroke="rgb(255,153,0)"/>
      <path fill="rgb(255,153,0)" stroke-dasharray="6,2" d="M592.0535 199.9956 L579.1143 201.2509 L584.1189 204.2432 L583.8338 210.0672 Z" clip-path="url(#clipPath2)" stroke="none"/>
      <path fill="none" d="M498.9762 416.8421 L411.4719 479.3682" clip-path="url(#clipPath2)" stroke="rgb(153,204,0)"/>
      <path fill="rgb(153,204,0)" d="M404.9628 484.0192 L417.6333 481.1108 L412.2855 478.7868 L411.8195 472.9745 Z" clip-path="url(#clipPath2)" stroke="none"/>
      <path fill="none" d="M377 524.0396 L377 567.0078" clip-path="url(#clipPath2)" stroke="rgb(153,204,0)"/>
      <path fill="rgb(153,204,0)" d="M377 575.0078 L382 563.0078 L377 566.0078 L372 563.0078 Z" clip-path="url(#clipPath2)" stroke="none"/>
    </g>
  </g>
</svg>
