<?xml version="1.0" encoding="UTF-8"?><svg xmlns="http://www.w3.org/2000/svg" xmlns:xlink="http://www.w3.org/1999/xlink" fill-opacity="1" color-rendering="auto" color-interpolation="auto" text-rendering="auto" stroke="black" stroke-linecap="square" width="302" stroke-miterlimit="10" shape-rendering="auto" stroke-opacity="1" fill="black" stroke-dasharray="none" font-weight="normal" stroke-width="1" height="290" font-family="'Dialog'" font-style="normal" stroke-linejoin="miter" font-size="12px" stroke-dashoffset="0" image-rendering="auto">
  <!--Generated by ySVG 2.5-->
  <defs id="genericDefs"/>
  <g>
    <defs id="defs1">
      <linearGradient x1="193.5" gradientUnits="userSpaceOnUse" x2="313.5" y1="327" y2="367" id="linearGradient1" spreadMethod="reflect">
        <stop stop-opacity="1" stop-color="rgb(0,153,204)" offset="0%"/>
        <stop stop-opacity="1" stop-color="rgb(0,153,204)" offset="100%"/>
      </linearGradient>
      <linearGradient x1="377.5" gradientUnits="userSpaceOnUse" x2="457.5" y1="327" y2="367" id="linearGradient2" spreadMethod="reflect">
        <stop stop-opacity="1" stop-color="rgb(0,153,204)" offset="0%"/>
        <stop stop-opacity="1" stop-color="rgb(0,153,204)" offset="100%"/>
      </linearGradient>
      <linearGradient x1="377.5" gradientUnits="userSpaceOnUse" x2="457.5" y1="437" y2="477" id="linearGradient3" spreadMethod="reflect">
        <stop stop-opacity="1" stop-color="rgb(0,153,204)" offset="0%"/>
        <stop stop-opacity="1" stop-color="rgb(0,153,204)" offset="100%"/>
      </linearGradient>
      <linearGradient x1="377.5" gradientUnits="userSpaceOnUse" x2="457.5" y1="547" y2="587" id="linearGradient4" spreadMethod="reflect">
        <stop stop-opacity="1" stop-color="rgb(0,153,204)" offset="0%"/>
        <stop stop-opacity="1" stop-color="rgb(0,153,204)" offset="100%"/>
      </linearGradient>
      <linearGradient x1="193.5" gradientUnits="userSpaceOnUse" x2="313.5" y1="547" y2="587" id="linearGradient5" spreadMethod="reflect">
        <stop stop-opacity="1" stop-color="rgb(0,153,204)" offset="0%"/>
        <stop stop-opacity="1" stop-color="rgb(0,153,204)" offset="100%"/>
      </linearGradient>
      <clipPath clipPathUnits="userSpaceOnUse" id="clipPath1">
        <path d="M0 0 L302 0 L302 290 L0 290 L0 0 Z"/>
      </clipPath>
      <clipPath clipPathUnits="userSpaceOnUse" id="clipPath2">
        <path d="M178 312 L480 312 L480 602 L178 602 L178 312 Z"/>
      </clipPath>
    </defs>
    <g fill="url(#linearGradient1)" text-rendering="geometricPrecision" shape-rendering="geometricPrecision" transform="matrix(1,0,0,1,-178,-312)" stroke="url(#linearGradient1)">
      <path d="M193.5 327 L313.5 327 L313.5 367 L193.5 367 Z" stroke="none" clip-path="url(#clipPath2)"/>
    </g>
    <g stroke-linecap="butt" transform="matrix(1,0,0,1,-178,-312)" fill="rgb(51,102,255)" text-rendering="geometricPrecision" shape-rendering="geometricPrecision" stroke="rgb(51,102,255)" stroke-miterlimit="1.45">
      <path fill="none" d="M193.5 327 L313.5 327 L313.5 367 L193.5 367 Z" clip-path="url(#clipPath2)"/>
    </g>
    <g font-size="15px" stroke-linecap="butt" transform="matrix(1,0,0,1,-178,-312)" text-rendering="geometricPrecision" font-family="sans-serif" shape-rendering="geometricPrecision" stroke-miterlimit="1.45">
      <text x="207.0004" xml:space="preserve" y="352.3323" clip-path="url(#clipPath2)" stroke="none">42的二进制：</text>
    </g>
    <g fill="url(#linearGradient2)" text-rendering="geometricPrecision" shape-rendering="geometricPrecision" transform="matrix(1,0,0,1,-178,-312)" stroke="url(#linearGradient2)">
      <path d="M377.5 327 L457.5 327 L457.5 367 L377.5 367 Z" stroke="none" clip-path="url(#clipPath2)"/>
    </g>
    <g stroke-linecap="butt" transform="matrix(1,0,0,1,-178,-312)" fill="rgb(51,102,255)" text-rendering="geometricPrecision" shape-rendering="geometricPrecision" stroke="rgb(51,102,255)" stroke-miterlimit="1.45">
      <path fill="none" d="M377.5 327 L457.5 327 L457.5 367 L377.5 367 Z" clip-path="url(#clipPath2)"/>
    </g>
    <g font-size="15px" stroke-linecap="butt" transform="matrix(1,0,0,1,-178,-312)" text-rendering="geometricPrecision" font-family="sans-serif" shape-rendering="geometricPrecision" stroke-miterlimit="1.45">
      <text x="381.5015" xml:space="preserve" y="352.3323" clip-path="url(#clipPath2)" stroke="none">00101010</text>
    </g>
    <g fill="url(#linearGradient3)" text-rendering="geometricPrecision" shape-rendering="geometricPrecision" transform="matrix(1,0,0,1,-178,-312)" stroke="url(#linearGradient3)">
      <path d="M377.5 437 L457.5 437 L457.5 477 L377.5 477 Z" stroke="none" clip-path="url(#clipPath2)"/>
    </g>
    <g stroke-linecap="butt" transform="matrix(1,0,0,1,-178,-312)" fill="rgb(51,102,255)" text-rendering="geometricPrecision" shape-rendering="geometricPrecision" stroke="rgb(51,102,255)" stroke-miterlimit="1.45">
      <path fill="none" d="M377.5 437 L457.5 437 L457.5 477 L377.5 477 Z" clip-path="url(#clipPath2)"/>
    </g>
    <g font-size="15px" stroke-linecap="butt" transform="matrix(1,0,0,1,-178,-312)" text-rendering="geometricPrecision" font-family="sans-serif" shape-rendering="geometricPrecision" stroke-miterlimit="1.45">
      <text x="381.5015" xml:space="preserve" y="462.3323" clip-path="url(#clipPath2)" stroke="none">11010101</text>
    </g>
    <g fill="url(#linearGradient4)" text-rendering="geometricPrecision" shape-rendering="geometricPrecision" transform="matrix(1,0,0,1,-178,-312)" stroke="url(#linearGradient4)">
      <path d="M377.5 547 L457.5 547 L457.5 587 L377.5 587 Z" stroke="none" clip-path="url(#clipPath2)"/>
    </g>
    <g stroke-linecap="butt" transform="matrix(1,0,0,1,-178,-312)" fill="rgb(51,102,255)" text-rendering="geometricPrecision" shape-rendering="geometricPrecision" stroke="rgb(51,102,255)" stroke-miterlimit="1.45">
      <path fill="none" d="M377.5 547 L457.5 547 L457.5 587 L377.5 587 Z" clip-path="url(#clipPath2)"/>
    </g>
    <g font-size="15px" stroke-linecap="butt" transform="matrix(1,0,0,1,-178,-312)" text-rendering="geometricPrecision" font-family="sans-serif" shape-rendering="geometricPrecision" stroke-miterlimit="1.45">
      <text x="381.5015" xml:space="preserve" y="572.3323" clip-path="url(#clipPath2)" stroke="none">11010110</text>
    </g>
    <g fill="url(#linearGradient5)" text-rendering="geometricPrecision" shape-rendering="geometricPrecision" transform="matrix(1,0,0,1,-178,-312)" stroke="url(#linearGradient5)">
      <path d="M193.5 547 L313.5 547 L313.5 587 L193.5 587 Z" stroke="none" clip-path="url(#clipPath2)"/>
    </g>
    <g stroke-linecap="butt" transform="matrix(1,0,0,1,-178,-312)" fill="rgb(51,102,255)" text-rendering="geometricPrecision" shape-rendering="geometricPrecision" stroke="rgb(51,102,255)" stroke-miterlimit="1.45">
      <path fill="none" d="M193.5 547 L313.5 547 L313.5 587 L193.5 587 Z" clip-path="url(#clipPath2)"/>
    </g>
    <g font-size="15px" stroke-linecap="butt" transform="matrix(1,0,0,1,-178,-312)" text-rendering="geometricPrecision" font-family="sans-serif" shape-rendering="geometricPrecision" stroke-miterlimit="1.45">
      <text x="202.5005" xml:space="preserve" y="572.3323" clip-path="url(#clipPath2)" stroke="none">-42的二进制：</text>
    </g>
    <g stroke-linecap="butt" transform="matrix(1,0,0,1,-178,-312)" fill="rgb(255,153,0)" text-rendering="geometricPrecision" shape-rendering="geometricPrecision" stroke="rgb(255,153,0)" stroke-miterlimit="1.45">
      <path fill="none" d="M321.5186 347 L369.5169 347" clip-path="url(#clipPath2)"/>
    </g>
    <g stroke-linecap="butt" transform="matrix(1,0,0,1,-178,-312)" fill="rgb(255,153,0)" text-rendering="geometricPrecision" shape-rendering="geometricPrecision" stroke="rgb(255,153,0)" stroke-miterlimit="1.45">
      <path d="M313.5186 347 L325.5186 352 L322.5186 347 L325.5186 342 Z" stroke="none" clip-path="url(#clipPath2)"/>
      <path d="M377.5169 347 L365.5169 342 L368.5169 347 L365.5169 352 Z" clip-path="url(#clipPath2)" stroke="none"/>
      <path fill="none" d="M417.5 367.0073 L417.5 429.0065" clip-path="url(#clipPath2)"/>
      <path d="M417.5 437.0065 L422.5 425.0065 L417.5 428.0065 L412.5 425.0065 Z" clip-path="url(#clipPath2)" stroke="none"/>
    </g>
    <g font-size="15px" stroke-linecap="butt" transform="matrix(1,0,0,1,-178,-312)" text-rendering="geometricPrecision" font-family="sans-serif" shape-rendering="geometricPrecision" stroke-miterlimit="1.45">
      <text x="432.5" xml:space="preserve" y="407.3323" clip-path="url(#clipPath2)" stroke="none">取反</text>
    </g>
    <g stroke-linecap="butt" transform="matrix(1,0,0,1,-178,-312)" fill="rgb(255,153,0)" text-rendering="geometricPrecision" shape-rendering="geometricPrecision" stroke="rgb(255,153,0)" stroke-miterlimit="1.45">
      <path fill="none" d="M417.5 477.0073 L417.5 539.0065" clip-path="url(#clipPath2)"/>
      <path d="M417.5 547.0065 L422.5 535.0065 L417.5 538.0065 L412.5 535.0065 Z" clip-path="url(#clipPath2)" stroke="none"/>
    </g>
    <g font-size="15px" stroke-linecap="butt" transform="matrix(1,0,0,1,-178,-312)" text-rendering="geometricPrecision" font-family="sans-serif" shape-rendering="geometricPrecision" stroke-miterlimit="1.45">
      <text x="432.5" xml:space="preserve" y="517.3323" clip-path="url(#clipPath2)" stroke="none">加一</text>
    </g>
    <g stroke-linecap="butt" transform="matrix(1,0,0,1,-178,-312)" fill="rgb(255,102,0)" text-rendering="geometricPrecision" shape-rendering="geometricPrecision" stroke="rgb(255,102,0)" stroke-miterlimit="1.45">
      <path fill="none" d="M321.5186 567 L369.5169 567" clip-path="url(#clipPath2)"/>
      <path d="M313.5186 567 L325.5186 572 L322.5186 567 L325.5186 562 Z" clip-path="url(#clipPath2)" stroke="none"/>
      <path d="M377.5169 567 L365.5169 562 L368.5169 567 L365.5169 572 Z" clip-path="url(#clipPath2)" stroke="none"/>
    </g>
  </g>
</svg>
