<?xml version="1.0" encoding="UTF-8"?><svg xmlns="http://www.w3.org/2000/svg" xmlns:xlink="http://www.w3.org/1999/xlink" fill-opacity="1" color-rendering="auto" color-interpolation="auto" text-rendering="auto" stroke="black" stroke-linecap="square" width="546" stroke-miterlimit="10" shape-rendering="auto" stroke-opacity="1" fill="black" stroke-dasharray="none" font-weight="normal" stroke-width="1" height="581" font-family="'Dialog'" font-style="normal" stroke-linejoin="miter" font-size="12px" stroke-dashoffset="0" image-rendering="auto">
  <!--Generated by ySVG 2.5-->
  <defs id="genericDefs"/>
  <g>
    <defs id="defs1">
      <linearGradient x1="68" gradientUnits="userSpaceOnUse" x2="261" y1="145" y2="185" id="linearGradient1" spreadMethod="reflect">
        <stop stop-opacity="1" stop-color="rgb(0,153,204)" offset="0%"/>
        <stop stop-opacity="1" stop-color="rgb(0,153,204)" offset="100%"/>
      </linearGradient>
      <linearGradient x1="150" gradientUnits="userSpaceOnUse" x2="261" y1="230" y2="270" id="linearGradient2" spreadMethod="reflect">
        <stop stop-opacity="1" stop-color="rgb(0,153,204)" offset="0%"/>
        <stop stop-opacity="1" stop-color="rgb(0,153,204)" offset="100%"/>
      </linearGradient>
      <linearGradient x1="375" gradientUnits="userSpaceOnUse" x2="455" y1="230" y2="270" id="linearGradient3" spreadMethod="reflect">
        <stop stop-opacity="1" stop-color="rgb(0,153,204)" offset="0%"/>
        <stop stop-opacity="1" stop-color="rgb(0,153,204)" offset="100%"/>
      </linearGradient>
      <linearGradient x1="150" gradientUnits="userSpaceOnUse" x2="261" y1="300" y2="340" id="linearGradient4" spreadMethod="reflect">
        <stop stop-opacity="1" stop-color="rgb(0,153,204)" offset="0%"/>
        <stop stop-opacity="1" stop-color="rgb(0,153,204)" offset="100%"/>
      </linearGradient>
      <linearGradient x1="375" gradientUnits="userSpaceOnUse" x2="455" y1="300" y2="340" id="linearGradient5" spreadMethod="reflect">
        <stop stop-opacity="1" stop-color="rgb(0,153,204)" offset="0%"/>
        <stop stop-opacity="1" stop-color="rgb(0,153,204)" offset="100%"/>
      </linearGradient>
      <linearGradient x1="150" gradientUnits="userSpaceOnUse" x2="261" y1="370" y2="410" id="linearGradient6" spreadMethod="reflect">
        <stop stop-opacity="1" stop-color="rgb(0,153,204)" offset="0%"/>
        <stop stop-opacity="1" stop-color="rgb(0,153,204)" offset="100%"/>
      </linearGradient>
      <linearGradient x1="375" gradientUnits="userSpaceOnUse" x2="455" y1="370" y2="410" id="linearGradient7" spreadMethod="reflect">
        <stop stop-opacity="1" stop-color="rgb(0,153,204)" offset="0%"/>
        <stop stop-opacity="1" stop-color="rgb(0,153,204)" offset="100%"/>
      </linearGradient>
      <linearGradient x1="150" gradientUnits="userSpaceOnUse" x2="261" y1="440" y2="480" id="linearGradient8" spreadMethod="reflect">
        <stop stop-opacity="1" stop-color="rgb(0,153,204)" offset="0%"/>
        <stop stop-opacity="1" stop-color="rgb(0,153,204)" offset="100%"/>
      </linearGradient>
      <linearGradient x1="375" gradientUnits="userSpaceOnUse" x2="455" y1="440" y2="480" id="linearGradient9" spreadMethod="reflect">
        <stop stop-opacity="1" stop-color="rgb(0,153,204)" offset="0%"/>
        <stop stop-opacity="1" stop-color="rgb(0,153,204)" offset="100%"/>
      </linearGradient>
      <linearGradient x1="150" gradientUnits="userSpaceOnUse" x2="261" y1="510" y2="550" id="linearGradient10" spreadMethod="reflect">
        <stop stop-opacity="1" stop-color="rgb(0,153,204)" offset="0%"/>
        <stop stop-opacity="1" stop-color="rgb(0,153,204)" offset="100%"/>
      </linearGradient>
      <linearGradient x1="375" gradientUnits="userSpaceOnUse" x2="455" y1="510" y2="550" id="linearGradient11" spreadMethod="reflect">
        <stop stop-opacity="1" stop-color="rgb(0,153,204)" offset="0%"/>
        <stop stop-opacity="1" stop-color="rgb(0,153,204)" offset="100%"/>
      </linearGradient>
      <linearGradient x1="68" gradientUnits="userSpaceOnUse" x2="348" y1="580" y2="620" id="linearGradient12" spreadMethod="reflect">
        <stop stop-opacity="1" stop-color="rgb(0,153,204)" offset="0%"/>
        <stop stop-opacity="1" stop-color="rgb(0,153,204)" offset="100%"/>
      </linearGradient>
      <linearGradient x1="375" gradientUnits="userSpaceOnUse" x2="583" y1="580" y2="620" id="linearGradient13" spreadMethod="reflect">
        <stop stop-opacity="1" stop-color="rgb(0,153,204)" offset="0%"/>
        <stop stop-opacity="1" stop-color="rgb(0,153,204)" offset="100%"/>
      </linearGradient>
      <linearGradient x1="68" gradientUnits="userSpaceOnUse" x2="466" y1="650" y2="690" id="linearGradient14" spreadMethod="reflect">
        <stop stop-opacity="1" stop-color="rgb(0,153,204)" offset="0%"/>
        <stop stop-opacity="1" stop-color="rgb(0,153,204)" offset="100%"/>
      </linearGradient>
      <linearGradient x1="503" gradientUnits="userSpaceOnUse" x2="583" y1="649.6686" y2="689.6686" id="linearGradient15" spreadMethod="reflect">
        <stop stop-opacity="1" stop-color="rgb(0,153,204)" offset="0%"/>
        <stop stop-opacity="1" stop-color="rgb(0,153,204)" offset="100%"/>
      </linearGradient>
      <clipPath clipPathUnits="userSpaceOnUse" id="clipPath1">
        <path d="M0 0 L546 0 L546 581 L0 581 L0 0 Z"/>
      </clipPath>
      <clipPath clipPathUnits="userSpaceOnUse" id="clipPath2">
        <path d="M52 130 L598 130 L598 711 L52 711 L52 130 Z"/>
      </clipPath>
    </defs>
    <g fill="url(#linearGradient1)" text-rendering="geometricPrecision" shape-rendering="geometricPrecision" transform="matrix(1,0,0,1,-52,-130)" stroke="url(#linearGradient1)">
      <path d="M68 145 L261 145 L261 185 L68 185 Z" stroke="none" clip-path="url(#clipPath2)"/>
    </g>
    <g stroke-linecap="butt" transform="matrix(1,0,0,1,-52,-130)" fill="rgb(51,102,255)" text-rendering="geometricPrecision" shape-rendering="geometricPrecision" stroke="rgb(51,102,255)" stroke-miterlimit="1.45">
      <path fill="none" d="M68 145 L261 145 L261 185 L68 185 Z" clip-path="url(#clipPath2)"/>
      <text x="74.5099" y="169.2637" clip-path="url(#clipPath2)" fill="black" font-family="sans-serif" stroke="none" xml:space="preserve">把十进制的 0.2 转换为二进制：</text>
    </g>
    <g fill="url(#linearGradient2)" text-rendering="geometricPrecision" shape-rendering="geometricPrecision" transform="matrix(1,0,0,1,-52,-130)" stroke="url(#linearGradient2)">
      <path d="M150 230 L261 230 L261 270 L150 270 Z" stroke="none" clip-path="url(#clipPath2)"/>
    </g>
    <g stroke-linecap="butt" transform="matrix(1,0,0,1,-52,-130)" fill="rgb(51,102,255)" text-rendering="geometricPrecision" shape-rendering="geometricPrecision" stroke="rgb(51,102,255)" stroke-miterlimit="1.45">
      <path fill="none" d="M150 230 L261 230 L261 270 L150 270 Z" clip-path="url(#clipPath2)"/>
      <text x="158.7257" y="254.2637" clip-path="url(#clipPath2)" fill="black" font-family="sans-serif" stroke="none" xml:space="preserve">0.2 x 2 = 0.4</text>
    </g>
    <g fill="url(#linearGradient3)" text-rendering="geometricPrecision" shape-rendering="geometricPrecision" transform="matrix(1,0,0,1,-52,-130)" stroke="url(#linearGradient3)">
      <path d="M375 230 L455 230 L455 270 L375 270 Z" stroke="none" clip-path="url(#clipPath2)"/>
    </g>
    <g stroke-linecap="butt" transform="matrix(1,0,0,1,-52,-130)" fill="rgb(51,102,255)" text-rendering="geometricPrecision" shape-rendering="geometricPrecision" stroke="rgb(51,102,255)" stroke-miterlimit="1.45">
      <path fill="none" d="M375 230 L455 230 L455 270 L375 270 Z" clip-path="url(#clipPath2)"/>
      <text x="411.402" y="254.2637" clip-path="url(#clipPath2)" fill="black" font-family="sans-serif" stroke="none" xml:space="preserve">0</text>
    </g>
    <g fill="url(#linearGradient4)" text-rendering="geometricPrecision" shape-rendering="geometricPrecision" transform="matrix(1,0,0,1,-52,-130)" stroke="url(#linearGradient4)">
      <path d="M150 300 L261 300 L261 340 L150 340 Z" stroke="none" clip-path="url(#clipPath2)"/>
    </g>
    <g stroke-linecap="butt" transform="matrix(1,0,0,1,-52,-130)" fill="rgb(51,102,255)" text-rendering="geometricPrecision" shape-rendering="geometricPrecision" stroke="rgb(51,102,255)" stroke-miterlimit="1.45">
      <path fill="none" d="M150 300 L261 300 L261 340 L150 340 Z" clip-path="url(#clipPath2)"/>
      <text x="158.7257" y="324.2637" clip-path="url(#clipPath2)" fill="black" font-family="sans-serif" stroke="none" xml:space="preserve">0.4 x 2 = 0.8</text>
    </g>
    <g fill="url(#linearGradient5)" text-rendering="geometricPrecision" shape-rendering="geometricPrecision" transform="matrix(1,0,0,1,-52,-130)" stroke="url(#linearGradient5)">
      <path d="M375 300 L455 300 L455 340 L375 340 Z" stroke="none" clip-path="url(#clipPath2)"/>
    </g>
    <g stroke-linecap="butt" transform="matrix(1,0,0,1,-52,-130)" fill="rgb(51,102,255)" text-rendering="geometricPrecision" shape-rendering="geometricPrecision" stroke="rgb(51,102,255)" stroke-miterlimit="1.45">
      <path fill="none" d="M375 300 L455 300 L455 340 L375 340 Z" clip-path="url(#clipPath2)"/>
      <text x="411.402" y="324.2637" clip-path="url(#clipPath2)" fill="black" font-family="sans-serif" stroke="none" xml:space="preserve">0</text>
    </g>
    <g fill="url(#linearGradient6)" text-rendering="geometricPrecision" shape-rendering="geometricPrecision" transform="matrix(1,0,0,1,-52,-130)" stroke="url(#linearGradient6)">
      <path d="M150 370 L261 370 L261 410 L150 410 Z" stroke="none" clip-path="url(#clipPath2)"/>
    </g>
    <g stroke-linecap="butt" transform="matrix(1,0,0,1,-52,-130)" fill="rgb(51,102,255)" text-rendering="geometricPrecision" shape-rendering="geometricPrecision" stroke="rgb(51,102,255)" stroke-miterlimit="1.45">
      <path fill="none" d="M150 370 L261 370 L261 410 L150 410 Z" clip-path="url(#clipPath2)"/>
      <text x="158.7257" y="394.2637" clip-path="url(#clipPath2)" fill="black" font-family="sans-serif" stroke="none" xml:space="preserve">0.8 x 2 = 1.6</text>
    </g>
    <g fill="url(#linearGradient7)" text-rendering="geometricPrecision" shape-rendering="geometricPrecision" transform="matrix(1,0,0,1,-52,-130)" stroke="url(#linearGradient7)">
      <path d="M375 370 L455 370 L455 410 L375 410 Z" stroke="none" clip-path="url(#clipPath2)"/>
    </g>
    <g stroke-linecap="butt" transform="matrix(1,0,0,1,-52,-130)" fill="rgb(51,102,255)" text-rendering="geometricPrecision" shape-rendering="geometricPrecision" stroke="rgb(51,102,255)" stroke-miterlimit="1.45">
      <path fill="none" d="M375 370 L455 370 L455 410 L375 410 Z" clip-path="url(#clipPath2)"/>
      <text x="411.402" y="394.2637" clip-path="url(#clipPath2)" fill="black" font-family="sans-serif" stroke="none" xml:space="preserve">1</text>
    </g>
    <g fill="url(#linearGradient8)" text-rendering="geometricPrecision" shape-rendering="geometricPrecision" transform="matrix(1,0,0,1,-52,-130)" stroke="url(#linearGradient8)">
      <path d="M150 440 L261 440 L261 480 L150 480 Z" stroke="none" clip-path="url(#clipPath2)"/>
    </g>
    <g stroke-linecap="butt" transform="matrix(1,0,0,1,-52,-130)" fill="rgb(51,102,255)" text-rendering="geometricPrecision" shape-rendering="geometricPrecision" stroke="rgb(51,102,255)" stroke-miterlimit="1.45">
      <path fill="none" d="M150 440 L261 440 L261 480 L150 480 Z" clip-path="url(#clipPath2)"/>
      <text x="158.7257" y="464.2637" clip-path="url(#clipPath2)" fill="black" font-family="sans-serif" stroke="none" xml:space="preserve">0.6 x 2 = 1.2</text>
    </g>
    <g fill="url(#linearGradient9)" text-rendering="geometricPrecision" shape-rendering="geometricPrecision" transform="matrix(1,0,0,1,-52,-130)" stroke="url(#linearGradient9)">
      <path d="M375 440 L455 440 L455 480 L375 480 Z" stroke="none" clip-path="url(#clipPath2)"/>
    </g>
    <g stroke-linecap="butt" transform="matrix(1,0,0,1,-52,-130)" fill="rgb(51,102,255)" text-rendering="geometricPrecision" shape-rendering="geometricPrecision" stroke="rgb(51,102,255)" stroke-miterlimit="1.45">
      <path fill="none" d="M375 440 L455 440 L455 480 L375 480 Z" clip-path="url(#clipPath2)"/>
      <text x="411.402" y="464.2637" clip-path="url(#clipPath2)" fill="black" font-family="sans-serif" stroke="none" xml:space="preserve">1</text>
    </g>
    <g fill="url(#linearGradient10)" text-rendering="geometricPrecision" shape-rendering="geometricPrecision" transform="matrix(1,0,0,1,-52,-130)" stroke="url(#linearGradient10)">
      <path d="M150 510 L261 510 L261 550 L150 550 Z" stroke="none" clip-path="url(#clipPath2)"/>
    </g>
    <g stroke-linecap="butt" transform="matrix(1,0,0,1,-52,-130)" fill="rgb(51,102,255)" text-rendering="geometricPrecision" shape-rendering="geometricPrecision" stroke="rgb(51,102,255)" stroke-miterlimit="1.45">
      <path fill="none" d="M150 510 L261 510 L261 550 L150 550 Z" clip-path="url(#clipPath2)"/>
      <text x="158.7257" y="534.2637" clip-path="url(#clipPath2)" fill="black" font-family="sans-serif" stroke="none" xml:space="preserve">0.2 x 2 = 0.4</text>
    </g>
    <g fill="url(#linearGradient11)" text-rendering="geometricPrecision" shape-rendering="geometricPrecision" transform="matrix(1,0,0,1,-52,-130)" stroke="url(#linearGradient11)">
      <path d="M375 510 L455 510 L455 550 L375 550 Z" stroke="none" clip-path="url(#clipPath2)"/>
    </g>
    <g stroke-linecap="butt" transform="matrix(1,0,0,1,-52,-130)" fill="rgb(51,102,255)" text-rendering="geometricPrecision" shape-rendering="geometricPrecision" stroke="rgb(51,102,255)" stroke-miterlimit="1.45">
      <path fill="none" d="M375 510 L455 510 L455 550 L375 550 Z" clip-path="url(#clipPath2)"/>
      <text x="411.402" y="534.2637" clip-path="url(#clipPath2)" fill="black" font-family="sans-serif" stroke="none" xml:space="preserve">0</text>
    </g>
    <g fill="url(#linearGradient12)" text-rendering="geometricPrecision" shape-rendering="geometricPrecision" transform="matrix(1,0,0,1,-52,-130)" stroke="url(#linearGradient12)">
      <path d="M68 580 L348 580 L348 620 L68 620 Z" stroke="none" clip-path="url(#clipPath2)"/>
    </g>
    <g stroke-linecap="butt" transform="matrix(1,0,0,1,-52,-130)" fill="rgb(51,102,255)" text-rendering="geometricPrecision" shape-rendering="geometricPrecision" stroke="rgb(51,102,255)" stroke-miterlimit="1.45">
      <path fill="none" d="M68 580 L348 580 L348 620 L68 620 Z" clip-path="url(#clipPath2)"/>
      <text x="71.2158" y="604.2637" clip-path="url(#clipPath2)" fill="black" font-family="sans-serif" stroke="none" xml:space="preserve">运算 4 次以后开始循环，所以 0.2 的二进制为：</text>
    </g>
    <g fill="url(#linearGradient13)" text-rendering="geometricPrecision" shape-rendering="geometricPrecision" transform="matrix(1,0,0,1,-52,-130)" stroke="url(#linearGradient13)">
      <path d="M375 580 L583 580 L583 620 L375 620 Z" stroke="none" clip-path="url(#clipPath2)"/>
    </g>
    <g stroke-linecap="butt" transform="matrix(1,0,0,1,-52,-130)" fill="rgb(51,102,255)" text-rendering="geometricPrecision" shape-rendering="geometricPrecision" stroke="rgb(51,102,255)" stroke-miterlimit="1.45">
      <path fill="none" d="M375 580 L583 580 L583 620 L375 620 Z" clip-path="url(#clipPath2)"/>
      <text x="378.2554" y="604.2637" clip-path="url(#clipPath2)" fill="black" font-family="sans-serif" stroke="none" xml:space="preserve">0.0011 0011 0011 0011 ......</text>
    </g>
    <g fill="url(#linearGradient14)" text-rendering="geometricPrecision" shape-rendering="geometricPrecision" transform="matrix(1,0,0,1,-52,-130)" stroke="url(#linearGradient14)">
      <path d="M68 650 L466 650 L466 690 L68 690 Z" stroke="none" clip-path="url(#clipPath2)"/>
    </g>
    <g stroke-linecap="butt" transform="matrix(1,0,0,1,-52,-130)" fill="rgb(51,102,255)" text-rendering="geometricPrecision" shape-rendering="geometricPrecision" stroke="rgb(51,102,255)" stroke-miterlimit="1.45">
      <path fill="none" d="M68 650 L466 650 L466 690 L68 690 Z" clip-path="url(#clipPath2)"/>
      <text x="69" y="674.2637" clip-path="url(#clipPath2)" fill="black" font-family="sans-serif" stroke="none" xml:space="preserve">循环的书写方法是在循环的第一位和最后一位的下面分别添加一个标注点：</text>
    </g>
    <g fill="url(#linearGradient15)" text-rendering="geometricPrecision" shape-rendering="geometricPrecision" transform="matrix(1,0,0,1,-52,-130)" stroke="url(#linearGradient15)">
      <path d="M503 649.6686 L583 649.6686 L583 689.6686 L503 689.6686 Z" stroke="none" clip-path="url(#clipPath2)"/>
    </g>
    <g stroke-linecap="butt" transform="matrix(1,0,0,1,-52,-130)" fill="rgb(51,102,255)" text-rendering="geometricPrecision" shape-rendering="geometricPrecision" stroke="rgb(51,102,255)" stroke-miterlimit="1.45">
      <path fill="none" d="M503 649.6686 L583 649.6686 L583 689.6686 L503 689.6686 Z" clip-path="url(#clipPath2)"/>
      <text x="521.4119" y="673.9323" clip-path="url(#clipPath2)" fill="black" font-family="sans-serif" stroke="none" xml:space="preserve">0.0011</text>
    </g>
    <g text-rendering="geometricPrecision" stroke-miterlimit="1.45" shape-rendering="geometricPrecision" font-family="sans-serif" transform="matrix(1,0,0,1,-52,-130)" stroke-linecap="butt">
      <text x="521.4119" xml:space="preserve" y="679.9323" clip-path="url(#clipPath2)" stroke="none">  .  .</text>
    </g>
    <g stroke-linecap="butt" transform="matrix(1,0,0,1,-52,-130)" fill="rgb(255,153,0)" text-rendering="geometricPrecision" shape-rendering="geometricPrecision" stroke-dasharray="6,2" stroke="rgb(255,153,0)" stroke-miterlimit="1.45">
      <path fill="none" d="M261.0206 250 L366.9638 250" clip-path="url(#clipPath2)"/>
    </g>
    <g stroke-linecap="butt" transform="matrix(1,0,0,1,-52,-130)" fill="rgb(255,153,0)" text-rendering="geometricPrecision" shape-rendering="geometricPrecision" stroke-dasharray="6,2" stroke="rgb(255,153,0)" stroke-miterlimit="1.45">
      <path d="M374.9638 250 L362.9638 245 L365.9638 250 L362.9638 255 Z" stroke="none" clip-path="url(#clipPath2)"/>
      <path fill="none" stroke-dasharray="none" d="M205.5 269.9951 L205.5 292.0273" clip-path="url(#clipPath2)" stroke="rgb(51,153,102)"/>
      <path fill="rgb(51,153,102)" stroke-dasharray="none" d="M205.5 300.0273 L210.5 288.0273 L205.5 291.0273 L200.5 288.0273 Z" clip-path="url(#clipPath2)" stroke="none"/>
      <path fill="none" d="M261.0206 320 L366.9638 320" clip-path="url(#clipPath2)"/>
      <path d="M374.9638 320 L362.9638 315 L365.9638 320 L362.9638 325 Z" clip-path="url(#clipPath2)" stroke="none"/>
      <path fill="none" stroke-dasharray="none" d="M205.5 339.9951 L205.5 362.0273" clip-path="url(#clipPath2)" stroke="rgb(51,153,102)"/>
      <path fill="rgb(51,153,102)" stroke-dasharray="none" d="M205.5 370.0273 L210.5 358.0273 L205.5 361.0273 L200.5 358.0273 Z" clip-path="url(#clipPath2)" stroke="none"/>
      <path fill="none" d="M261.0206 390 L366.9638 390" clip-path="url(#clipPath2)"/>
      <path d="M374.9638 390 L362.9638 385 L365.9638 390 L362.9638 395 Z" clip-path="url(#clipPath2)" stroke="none"/>
      <path fill="none" stroke-dasharray="none" d="M205.5 409.9951 L205.5 432.0273" clip-path="url(#clipPath2)" stroke="rgb(51,153,102)"/>
      <path fill="rgb(51,153,102)" stroke-dasharray="none" d="M205.5 440.0273 L210.5 428.0273 L205.5 431.0273 L200.5 428.0273 Z" clip-path="url(#clipPath2)" stroke="none"/>
      <path fill="none" d="M261.0206 460 L366.9638 460" clip-path="url(#clipPath2)"/>
      <path d="M374.9638 460 L362.9638 455 L365.9638 460 L362.9638 465 Z" clip-path="url(#clipPath2)" stroke="none"/>
      <path fill="none" stroke-dasharray="none" d="M205.5 479.9951 L205.5 502.0273" clip-path="url(#clipPath2)" stroke="rgb(51,153,102)"/>
      <path fill="rgb(51,153,102)" stroke-dasharray="none" d="M205.5 510.0273 L210.5 498.0273 L205.5 501.0273 L200.5 498.0273 Z" clip-path="url(#clipPath2)" stroke="none"/>
      <path fill="none" d="M261.0206 530 L366.9638 530" clip-path="url(#clipPath2)"/>
      <path d="M374.9638 530 L362.9638 525 L365.9638 530 L362.9638 535 Z" clip-path="url(#clipPath2)" stroke="none"/>
      <path fill="none" stroke-dasharray="none" d="M348.0321 600 L366.9867 600" clip-path="url(#clipPath2)" stroke="rgb(51,153,102)"/>
      <path fill="rgb(51,153,102)" stroke-dasharray="none" d="M374.9867 600 L362.9867 595 L365.9867 600 L362.9867 605 Z" clip-path="url(#clipPath2)" stroke="none"/>
      <path fill="none" stroke-dasharray="none" d="M406.2109 620.025 L406.2109 642.0002" clip-path="url(#clipPath2)" stroke="rgb(51,153,102)"/>
      <path fill="rgb(51,153,102)" stroke-dasharray="none" d="M406.2109 650.0002 L411.2109 638.0002 L406.2109 641.0002 L401.2109 638.0002 Z" clip-path="url(#clipPath2)" stroke="none"/>
      <path fill="none" stroke-dasharray="none" d="M466.0151 669.761 L494.9664 669.7263" clip-path="url(#clipPath2)" stroke="rgb(51,153,102)"/>
      <path fill="rgb(51,153,102)" stroke-dasharray="none" d="M502.9664 669.7167 L490.9604 664.7311 L493.9664 669.7275 L490.9724 674.731 Z" clip-path="url(#clipPath2)" stroke="none"/>
    </g>
  </g>
</svg>
